# Blender 5.2.0 LTS
# www.blender.org
mtllib eyething boneclaw eyes.mtl
o eye_white
v -0.350244 -0.050953 0.075532 0.9063 0.9063 0.9063
v -0.350495 -0.107790 0.074361 0.9063 0.9063 0.9063
v -0.335962 -0.079256 0.075340 0.9063 0.9063 0.9063
v -0.385174 -0.119191 0.073185 0.9063 0.9063 0.9063
v -0.385141 -0.039187 0.074825 0.9063 0.9063 0.9063
v -0.419648 -0.107624 0.072486 0.9063 0.9063 0.9063
v -0.420045 -0.050984 0.073635 0.9063 0.9063 0.9063
v -0.434353 -0.079121 0.072670 0.9063 0.9063 0.9063
v -0.350238 -0.050949 0.075315 0.9063 0.9063 0.9063
v -0.335956 -0.079252 0.075123 0.9063 0.9063 0.9063
v -0.350489 -0.107785 0.074144 0.9063 0.9063 0.9063
v -0.385168 -0.119186 0.072968 0.9063 0.9063 0.9063
v -0.385135 -0.039182 0.074608 0.9063 0.9063 0.9063
v -0.419642 -0.107619 0.072269 0.9063 0.9063 0.9063
v -0.420039 -0.050979 0.073418 0.9063 0.9063 0.9063
v -0.434347 -0.079117 0.072453 0.9063 0.9063 0.9063
v -0.385056 -0.040311 0.074754 0.9063 0.0000 0.0304
v -0.401073 -0.051868 0.074082 0.9063 0.0000 0.0304
v -0.385389 -0.079490 0.078402 0.9063 0.0000 0.0304
v -0.407382 -0.079301 0.073349 0.9063 0.0000 0.0304
v -0.369557 -0.051828 0.074939 0.9063 0.0000 0.0304
v -0.400764 -0.106531 0.072971 0.9063 0.0000 0.0304
v -0.362931 -0.079077 0.074561 0.9063 0.0000 0.0304
v -0.385250 -0.118053 0.073157 0.9063 0.0000 0.0304
v -0.369462 -0.106931 0.073813 0.9063 0.0000 0.0304
v 0.043903 0.142751 -0.030974 0.9063 0.0000 0.0304
v 0.057122 0.140792 -0.033463 0.9063 0.0000 0.0304
v 0.054219 0.126576 -0.050067 0.9063 0.0000 0.0304
v 0.068365 0.129333 -0.044300 0.9063 0.0000 0.0304
v 0.037099 0.134043 -0.038344 0.9063 0.0000 0.0304
v 0.071346 0.115193 -0.057059 0.9063 0.0000 0.0304
v 0.040080 0.119893 -0.051112 0.9063 0.0000 0.0304
v 0.064534 0.106481 -0.064434 0.9063 0.0000 0.0304
v 0.051575 0.108286 -0.062096 0.9063 0.0000 0.0304
v 0.024602 0.130328 -0.040994 0.9063 0.9063 0.9063
v 0.039755 0.103835 -0.065439 0.9063 0.9063 0.9063
v 0.022999 0.114042 -0.055406 0.9063 0.9063 0.9063
v 0.064783 0.105956 -0.064961 0.9063 0.9063 0.9063
v 0.043658 0.143317 -0.030502 0.9063 0.9063 0.9063
v 0.083622 0.118761 -0.054620 0.9063 0.9063 0.9063
v 0.068933 0.145302 -0.030159 0.9063 0.9063 0.9063
v 0.085441 0.135231 -0.040056 0.9063 0.9063 0.9063
v 0.024608 0.130229 -0.040883 0.9063 0.9063 0.9063
v 0.023005 0.113942 -0.055295 0.9063 0.9063 0.9063
v 0.039761 0.103736 -0.065328 0.9063 0.9063 0.9063
v 0.064789 0.105857 -0.064849 0.9063 0.9063 0.9063
v 0.043664 0.143218 -0.030390 0.9063 0.9063 0.9063
v 0.083629 0.118662 -0.054509 0.9063 0.9063 0.9063
v 0.068939 0.145202 -0.030047 0.9063 0.9063 0.9063
v 0.085447 0.135132 -0.039945 0.9063 0.9063 0.9063
v -0.247244 0.145489 -0.042953 0.9063 0.9063 0.9063
v -0.255468 0.121569 -0.057442 0.9063 0.9063 0.9063
v -0.258415 0.135527 -0.049296 0.9063 0.9063 0.9063
v -0.240113 0.112086 -0.062446 0.9063 0.9063 0.9063
v -0.228378 0.145714 -0.042070 0.9063 0.9063 0.9063
v -0.221484 0.112284 -0.061588 0.9063 0.9063 0.9063
v -0.212970 0.136034 -0.047188 0.9063 0.9063 0.9063
v -0.210076 0.122273 -0.055220 0.9063 0.9063 0.9063
v -0.247248 0.145433 -0.042857 0.9063 0.9063 0.9063
v -0.258418 0.135470 -0.049200 0.9063 0.9063 0.9063
v -0.255472 0.121512 -0.057347 0.9063 0.9063 0.9063
v -0.240116 0.112029 -0.062350 0.9063 0.9063 0.9063
v -0.228382 0.145657 -0.041974 0.9063 0.9063 0.9063
v -0.221488 0.112227 -0.061492 0.9063 0.9063 0.9063
v -0.212973 0.135977 -0.047092 0.9063 0.9063 0.9063
v -0.210080 0.122216 -0.055124 0.9063 0.9063 0.9063
v -0.228585 0.145239 -0.042329 0.9063 0.0000 0.0304
v -0.222417 0.138215 -0.046242 0.9063 0.0000 0.0304
v -0.234144 0.129946 -0.054262 0.9063 0.0000 0.0304
v -0.223348 0.125832 -0.053611 0.9063 0.0000 0.0304
v -0.237888 0.142496 -0.044323 0.9063 0.0000 0.0304
v -0.230597 0.115283 -0.060144 0.9063 0.0000 0.0304
v -0.245144 0.131940 -0.050862 0.9063 0.0000 0.0304
v -0.239908 0.112540 -0.062139 0.9063 0.0000 0.0304
v -0.246028 0.119350 -0.058351 0.9063 0.0000 0.0304
v -0.386357 -0.032933 -0.068241 0.9063 0.0000 0.0304
v -0.372499 -0.032718 -0.069131 0.9063 0.0000 0.0304
v -0.370095 -0.054759 -0.073131 0.9063 0.0000 0.0304
v -0.357472 -0.045521 -0.070513 0.9063 0.0000 0.0304
v -0.390275 -0.045924 -0.068401 0.9063 0.0000 0.0304
v -0.349814 -0.063635 -0.071587 0.9063 0.0000 0.0304
v -0.382614 -0.064052 -0.069476 0.9063 0.0000 0.0304
v -0.353739 -0.076636 -0.071748 0.9063 0.0000 0.0304
v -0.367286 -0.076999 -0.070882 0.9063 0.0000 0.0304
v -0.401527 -0.053537 -0.067951 0.9063 0.9063 0.9063
v -0.377619 -0.085443 -0.070518 0.9063 0.9063 0.9063
v -0.397740 -0.075473 -0.068896 0.9063 0.9063 0.9063
v -0.353310 -0.077308 -0.071833 0.9063 0.9063 0.9063
v -0.386782 -0.032262 -0.068227 0.9063 0.9063 0.9063
v -0.338720 -0.056323 -0.072108 0.9063 0.9063 0.9063
v -0.362180 -0.024256 -0.069565 0.9063 0.9063 0.9063
v -0.342352 -0.034098 -0.071163 0.9063 0.9063 0.9063
v -0.401517 -0.053542 -0.067798 0.9063 0.9063 0.9063
v -0.397730 -0.075477 -0.068744 0.9063 0.9063 0.9063
v -0.377609 -0.085448 -0.070365 0.9063 0.9063 0.9063
v -0.353300 -0.077313 -0.071680 0.9063 0.9063 0.9063
v -0.386773 -0.032267 -0.068075 0.9063 0.9063 0.9063
v -0.338710 -0.056328 -0.071956 0.9063 0.9063 0.9063
v -0.362171 -0.024261 -0.069413 0.9063 0.9063 0.9063
v -0.342342 -0.034103 -0.071011 0.9063 0.9063 0.9063
v -0.154265 -0.117901 -0.070090 0.9063 0.9063 0.9063
v -0.151985 -0.149477 -0.072128 0.9063 0.9063 0.9063
v -0.161148 -0.134181 -0.070841 0.9063 0.9063 0.9063
v -0.132254 -0.154475 -0.073173 0.9063 0.9063 0.9063
v -0.135284 -0.110016 -0.070309 0.9063 0.9063 0.9063
v -0.113501 -0.146716 -0.073391 0.9063 0.9063 0.9063
v -0.115412 -0.115225 -0.071372 0.9063 0.9063 0.9063
v -0.106389 -0.130310 -0.072641 0.9063 0.9063 0.9063
v -0.154260 -0.117909 -0.069969 0.9063 0.9063 0.9063
v -0.161144 -0.134188 -0.070720 0.9063 0.9063 0.9063
v -0.151980 -0.149484 -0.072007 0.9063 0.9063 0.9063
v -0.132249 -0.154482 -0.073051 0.9063 0.9063 0.9063
v -0.135279 -0.110024 -0.070188 0.9063 0.9063 0.9063
v -0.113496 -0.146724 -0.073270 0.9063 0.9063 0.9063
v -0.115407 -0.115233 -0.071251 0.9063 0.9063 0.9063
v -0.106385 -0.130317 -0.072520 0.9063 0.9063 0.9063
v -0.135287 -0.110647 -0.070320 0.9063 0.0000 0.0304
v -0.125937 -0.116451 -0.071028 0.9063 0.0000 0.0304
v -0.133790 -0.132207 -0.074203 0.9063 0.0000 0.0304
v -0.121392 -0.131453 -0.072125 0.9063 0.0000 0.0304
v -0.143480 -0.117644 -0.070448 0.9063 0.0000 0.0304
v -0.124051 -0.146840 -0.072978 0.9063 0.0000 0.0304
v -0.146142 -0.133043 -0.071301 0.9063 0.0000 0.0304
v -0.132252 -0.153842 -0.073105 0.9063 0.0000 0.0304
v -0.141458 -0.148270 -0.072418 0.9063 0.0000 0.0304
v 0.620423 0.011785 0.003665 0.9063 0.0000 0.0304
v 0.620423 0.003082 0.015708 0.9063 0.0000 0.0304
v 0.623774 -0.017610 0.003809 0.9063 0.0000 0.0304
v 0.620423 -0.017554 0.020442 0.9063 0.0000 0.0304
v 0.620423 0.003137 -0.007998 0.9063 0.0000 0.0304
v 0.620423 -0.038026 0.015454 0.9063 0.0000 0.0304
v 0.620423 -0.017349 -0.012991 0.9063 0.0000 0.0304
v 0.620423 -0.046679 0.003780 0.9063 0.0000 0.0304
v 0.620423 -0.038301 -0.008090 0.9063 0.0000 0.0304
v 0.620460 0.003811 -0.022524 0.9063 0.9063 0.9063
v 0.620460 -0.038931 -0.022357 0.9063 0.9063 0.9063
v 0.620460 -0.017462 -0.033278 0.9063 0.9063 0.9063
v 0.620461 -0.047533 0.003721 0.9063 0.9063 0.9063
v 0.620461 0.012632 0.003728 0.9063 0.9063 0.9063
v 0.620461 -0.038862 0.029656 0.9063 0.9063 0.9063
v 0.620461 0.003732 0.029977 0.9063 0.9063 0.9063
v 0.620461 -0.017440 0.040727 0.9063 0.9063 0.9063
v 0.620297 0.003811 -0.022524 0.9063 0.9063 0.9063
v 0.620296 -0.017462 -0.033278 0.9063 0.9063 0.9063
v 0.620297 -0.038931 -0.022357 0.9063 0.9063 0.9063
v 0.620297 -0.047533 0.003721 0.9063 0.9063 0.9063
v 0.620297 0.012632 0.003728 0.9063 0.9063 0.9063
v 0.620298 -0.038862 0.029656 0.9063 0.9063 0.9063
v 0.620298 0.003732 0.029977 0.9063 0.9063 0.9063
v 0.620298 -0.017440 0.040727 0.9063 0.9063 0.9063
v 0.043355 0.029211 -0.079134 0.9063 0.9063 0.9063
v 0.067392 -0.001928 -0.072153 0.9063 0.9063 0.9063
v 0.047208 0.007733 -0.074636 0.9063 0.9063 0.9063
v 0.091723 0.006180 -0.073207 0.9063 0.9063 0.9063
v 0.058069 0.050145 -0.083056 0.9063 0.9063 0.9063
v 0.106282 0.026829 -0.077074 0.9063 0.9063 0.9063
v 0.082693 0.058129 -0.084077 0.9063 0.9063 0.9063
v 0.102583 0.048593 -0.081627 0.9063 0.9063 0.9063
v 0.043351 0.029242 -0.078984 0.9063 0.9063 0.9063
v 0.047204 0.007764 -0.074487 0.9063 0.9063 0.9063
v 0.067389 -0.001897 -0.072003 0.9063 0.9063 0.9063
v 0.091719 0.006211 -0.073057 0.9063 0.9063 0.9063
v 0.058065 0.050176 -0.082907 0.9063 0.9063 0.9063
v 0.106279 0.026860 -0.076925 0.9063 0.9063 0.9063
v 0.082689 0.058160 -0.083928 0.9063 0.9063 0.9063
v 0.102580 0.048623 -0.081477 0.9063 0.9063 0.9063
v 0.058494 0.049499 -0.082877 0.9063 0.0000 0.0304
v 0.072376 0.049786 -0.082589 0.9063 0.0000 0.0304
v 0.075123 0.027471 -0.081146 0.9063 0.0000 0.0304
v 0.087465 0.037321 -0.079658 0.9063 0.0000 0.0304
v 0.054603 0.036743 -0.080361 0.9063 0.0000 0.0304
v 0.095185 0.019609 -0.075836 0.9063 0.0000 0.0304
v 0.062327 0.019018 -0.076535 0.9063 0.0000 0.0304
v 0.091288 0.006844 -0.073318 0.9063 0.0000 0.0304
v 0.077717 0.006414 -0.073568 0.9063 0.0000 0.0304
v -0.239879 -0.120097 0.075612 0.9063 0.0000 0.0304
v -0.243996 -0.131562 0.075612 0.9063 0.0000 0.0304
v -0.226364 -0.140051 0.078359 0.9063 0.0000 0.0304
v -0.237643 -0.147717 0.075612 0.9063 0.0000 0.0304
v -0.227984 -0.120547 0.075612 0.9063 0.0000 0.0304
v -0.224788 -0.159258 0.075612 0.9063 0.0000 0.0304
v -0.215118 -0.132095 0.075612 0.9063 0.0000 0.0304
v -0.212883 -0.159706 0.075612 0.9063 0.0000 0.0304
v -0.208731 -0.148541 0.075612 0.9063 0.0000 0.0304
v -0.218467 -0.113364 0.075643 0.9063 0.9063 0.9063
v -0.198786 -0.142360 0.075643 0.9063 0.9063 0.9063
v -0.201340 -0.122777 0.075643 0.9063 0.9063 0.9063
v -0.212447 -0.160257 0.075643 0.9063 0.9063 0.9063
v -0.240314 -0.119553 0.075643 0.9063 0.9063 0.9063
v -0.234009 -0.166400 0.075643 0.9063 0.9063 0.9063
v -0.253952 -0.137730 0.075643 0.9063 0.9063 0.9063
v -0.251421 -0.157033 0.075643 0.9063 0.9063 0.9063
v -0.218467 -0.113364 0.075509 0.9063 0.9063 0.9063
v -0.201340 -0.122777 0.075509 0.9063 0.9063 0.9063
v -0.198786 -0.142360 0.075509 0.9063 0.9063 0.9063
v -0.212447 -0.160257 0.075509 0.9063 0.9063 0.9063
v -0.240314 -0.119553 0.075509 0.9063 0.9063 0.9063
v -0.234009 -0.166400 0.075509 0.9063 0.9063 0.9063
v -0.253952 -0.137730 0.075509 0.9063 0.9063 0.9063
v -0.251421 -0.157033 0.075509 0.9063 0.9063 0.9063
v -0.033117 -0.128391 0.075658 0.9063 0.9063 0.9063
v -0.043849 -0.151414 0.075658 0.9063 0.9063 0.9063
v -0.032611 -0.142548 0.075658 0.9063 0.9063 0.9063
v -0.060063 -0.149563 0.075658 0.9063 0.9063 0.9063
v -0.045088 -0.117095 0.075658 0.9063 0.9063 0.9063
v -0.071899 -0.138427 0.075658 0.9063 0.9063 0.9063
v -0.061467 -0.115363 0.075658 0.9063 0.9063 0.9063
v -0.072540 -0.124111 0.075658 0.9063 0.9063 0.9063
v -0.033117 -0.128391 0.075561 0.9063 0.9063 0.9063
v -0.032611 -0.142548 0.075561 0.9063 0.9063 0.9063
v -0.043849 -0.151414 0.075561 0.9063 0.9063 0.9063
v -0.060063 -0.149563 0.075561 0.9063 0.9063 0.9063
v -0.045088 -0.117095 0.075561 0.9063 0.9063 0.9063
v -0.071899 -0.138427 0.075561 0.9063 0.9063 0.9063
v -0.061467 -0.115363 0.075561 0.9063 0.9063 0.9063
v -0.072540 -0.124111 0.075561 0.9063 0.9063 0.9063
v -0.045264 -0.117568 0.075636 0.9063 0.0000 0.0304
v -0.053929 -0.119266 0.075636 0.9063 0.0000 0.0304
v -0.052660 -0.133394 0.077627 0.9063 0.0000 0.0304
v -0.061622 -0.129223 0.075636 0.9063 0.0000 0.0304
v -0.041124 -0.125138 0.075636 0.9063 0.0000 0.0304
v -0.064027 -0.141512 0.075636 0.9063 0.0000 0.0304
v -0.043530 -0.137436 0.075636 0.9063 0.0000 0.0304
v -0.059882 -0.149087 0.075636 0.9063 0.0000 0.0304
v -0.051391 -0.147522 0.075636 0.9063 0.0000 0.0304
v 0.024052 -0.017853 0.075739 0.9063 0.0000 0.0304
v 0.031532 -0.026925 0.074884 0.9063 0.0000 0.0304
v 0.047363 -0.016743 0.078258 0.9063 0.0000 0.0304
v 0.048103 -0.029642 0.074478 0.9063 0.0000 0.0304
v 0.030331 -0.008225 0.076497 0.9063 0.0000 0.0304
v 0.064070 -0.024698 0.074734 0.9063 0.0000 0.0304
v 0.046310 -0.003275 0.076753 0.9063 0.0000 0.0304
v 0.070352 -0.015061 0.075492 0.9063 0.0000 0.0304
v 0.063140 -0.006109 0.076334 0.9063 0.0000 0.0304
v 0.029089 0.003200 0.077518 0.9063 0.9063 0.9063
v 0.062943 0.005176 0.077332 0.9063 0.9063 0.9063
v 0.045410 0.012733 0.078162 0.9063 0.9063 0.9063
v 0.071027 -0.014975 0.075523 0.9063 0.9063 0.9063
v 0.023385 -0.017947 0.075768 0.9063 0.9063 0.9063
v 0.065425 -0.035864 0.073794 0.9063 0.9063 0.9063
v 0.031713 -0.038217 0.073946 0.9063 0.9063 0.9063
v 0.049002 -0.045655 0.073128 0.9063 0.9063 0.9063
v 0.029088 0.003211 0.077388 0.9063 0.9063 0.9063
v 0.045409 0.012744 0.078033 0.9063 0.9063 0.9063
v 0.062942 0.005187 0.077203 0.9063 0.9063 0.9063
v 0.071025 -0.014964 0.075394 0.9063 0.9063 0.9063
v 0.023384 -0.017936 0.075638 0.9063 0.9063 0.9063
v 0.065424 -0.035853 0.073665 0.9063 0.9063 0.9063
v 0.031712 -0.038206 0.073817 0.9063 0.9063 0.9063
v 0.049001 -0.045644 0.072999 0.9063 0.9063 0.9063
v -0.431976 -0.190512 0.075558 0.9063 0.0000 0.0304
v -0.428104 -0.209892 0.075558 0.9063 0.0000 0.0304
v -0.396496 -0.206934 0.080015 0.9063 0.0000 0.0304
v -0.405757 -0.227025 0.075558 0.9063 0.0000 0.0304
v -0.415069 -0.181184 0.075558 0.9063 0.0000 0.0304
v -0.378234 -0.232307 0.075558 0.9063 0.0000 0.0304
v -0.387525 -0.186467 0.075558 0.9063 0.0000 0.0304
v -0.361315 -0.222968 0.075558 0.9063 0.0000 0.0304
v -0.364888 -0.203977 0.075558 0.9063 0.0000 0.0304
v -0.407854 -0.163238 0.075608 0.9063 0.9063 0.9063
v -0.356240 -0.187066 0.075608 0.9063 0.9063 0.9063
v -0.376176 -0.161988 0.075608 0.9063 0.9063 0.9063
v -0.360248 -0.223368 0.075608 0.9063 0.9063 0.9063
v -0.433035 -0.190121 0.075608 0.9063 0.9063 0.9063
v -0.385073 -0.249949 0.075608 0.9063 0.9063 0.9063
v -0.436777 -0.226794 0.075608 0.9063 0.9063 0.9063
v -0.417108 -0.251501 0.075608 0.9063 0.9063 0.9063
v -0.407854 -0.163238 0.075391 0.9063 0.9063 0.9063
v -0.376176 -0.161988 0.075391 0.9063 0.9063 0.9063
v -0.356240 -0.187066 0.075391 0.9063 0.9063 0.9063
v -0.360248 -0.223368 0.075391 0.9063 0.9063 0.9063
v -0.433035 -0.190121 0.075391 0.9063 0.9063 0.9063
v -0.385073 -0.249949 0.075391 0.9063 0.9063 0.9063
v -0.436777 -0.226794 0.075391 0.9063 0.9063 0.9063
v -0.417108 -0.251501 0.075391 0.9063 0.9063 0.9063
v -0.433162 -0.366313 0.075641 0.9063 0.9063 0.9063
v -0.452674 -0.397101 0.075641 0.9063 0.9063 0.9063
v -0.435048 -0.386553 0.075641 0.9063 0.9063 0.9063
v -0.475407 -0.391481 0.075641 0.9063 0.9063 0.9063
v -0.448117 -0.348034 0.075641 0.9063 0.9063 0.9063
v -0.490200 -0.373454 0.075641 0.9063 0.9063 0.9063
v -0.471108 -0.342552 0.075641 0.9063 0.9063 0.9063
v -0.488476 -0.352962 0.075641 0.9063 0.9063 0.9063
v -0.433162 -0.366313 0.075501 0.9063 0.9063 0.9063
v -0.435048 -0.386553 0.075501 0.9063 0.9063 0.9063
v -0.452674 -0.397101 0.075501 0.9063 0.9063 0.9063
v -0.475407 -0.391481 0.075501 0.9063 0.9063 0.9063
v -0.448117 -0.348034 0.075501 0.9063 0.9063 0.9063
v -0.490200 -0.373454 0.075501 0.9063 0.9063 0.9063
v -0.471108 -0.342552 0.075501 0.9063 0.9063 0.9063
v -0.488476 -0.352962 0.075501 0.9063 0.9063 0.9063
v -0.448455 -0.348674 0.075609 0.9063 0.0000 0.0304
v -0.461100 -0.349495 0.075609 0.9063 0.0000 0.0304
v -0.461895 -0.369834 0.078466 0.9063 0.0000 0.0304
v -0.473880 -0.362248 0.075609 0.9063 0.0000 0.0304
v -0.443957 -0.360209 0.075609 0.9063 0.0000 0.0304
v -0.479566 -0.379294 0.075609 0.9063 0.0000 0.0304
v -0.449645 -0.377268 0.075609 0.9063 0.0000 0.0304
v -0.475062 -0.390838 0.075609 0.9063 0.0000 0.0304
v -0.462690 -0.390174 0.075609 0.9063 0.0000 0.0304
v -0.614075 -0.347189 0.075627 0.9063 0.0000 0.0304
v -0.621018 -0.354530 0.075627 0.9063 0.0000 0.0304
v -0.610447 -0.366846 0.077905 0.9063 0.0000 0.0304
v -0.621566 -0.368916 0.075627 0.9063 0.0000 0.0304
v -0.605188 -0.351489 0.075627 0.9063 0.0000 0.0304
v -0.615640 -0.381961 0.075627 0.9063 0.0000 0.0304
v -0.599256 -0.364543 0.075627 0.9063 0.0000 0.0304
v -0.606745 -0.386262 0.075627 0.9063 0.0000 0.0304
v -0.599876 -0.379161 0.075627 0.9063 0.0000 0.0304
v -0.595569 -0.349198 0.075653 0.9063 0.9063 0.9063
v -0.590265 -0.377774 0.075653 0.9063 0.9063 0.9063
v -0.585690 -0.362047 0.075653 0.9063 0.9063 0.9063
v -0.606597 -0.386825 0.075653 0.9063 0.9063 0.9063
v -0.614225 -0.346632 0.075653 0.9063 0.9063 0.9063
v -0.625021 -0.384319 0.075653 0.9063 0.9063 0.9063
v -0.630633 -0.355904 0.075653 0.9063 0.9063 0.9063
v -0.635132 -0.371410 0.075653 0.9063 0.9063 0.9063
v -0.595569 -0.349198 0.075541 0.9063 0.9063 0.9063
v -0.585690 -0.362047 0.075541 0.9063 0.9063 0.9063
v -0.590265 -0.377774 0.075541 0.9063 0.9063 0.9063
v -0.606597 -0.386825 0.075541 0.9063 0.9063 0.9063
v -0.614225 -0.346632 0.075541 0.9063 0.9063 0.9063
v -0.625021 -0.384319 0.075541 0.9063 0.9063 0.9063
v -0.630633 -0.355904 0.075541 0.9063 0.9063 0.9063
v -0.635132 -0.371410 0.075541 0.9063 0.9063 0.9063
v -0.576805 -0.488061 0.075586 0.9063 0.0000 0.0304
v -0.590553 -0.495990 0.075586 0.9063 0.0000 0.0304
v -0.580175 -0.519276 0.079165 0.9063 0.0000 0.0304
v -0.597841 -0.517396 0.075586 0.9063 0.0000 0.0304
v -0.565361 -0.498525 0.075586 0.9063 0.0000 0.0304
v -0.594782 -0.539692 0.075586 0.9063 0.0000 0.0304
v -0.562298 -0.520838 0.075586 0.9063 0.0000 0.0304
v -0.583327 -0.550163 0.075586 0.9063 0.0000 0.0304
v -0.569798 -0.542561 0.075586 0.9063 0.0000 0.0304
v -0.549854 -0.499399 0.075626 0.9063 0.9063 0.9063
v -0.554709 -0.544792 0.075626 0.9063 0.9063 0.9063
v -0.540757 -0.523177 0.075626 0.9063 0.9063 0.9063
v -0.583358 -0.551077 0.075626 0.9063 0.9063 0.9063
v -0.576780 -0.487155 0.075626 0.9063 0.9063 0.9063
v -0.609962 -0.539026 0.075626 0.9063 0.9063 0.9063
v -0.605641 -0.493737 0.075626 0.9063 0.9063 0.9063
v -0.619380 -0.515054 0.075626 0.9063 0.9063 0.9063
v -0.549854 -0.499399 0.075452 0.9063 0.9063 0.9063
v -0.540757 -0.523177 0.075452 0.9063 0.9063 0.9063
v -0.554709 -0.544792 0.075452 0.9063 0.9063 0.9063
v -0.583358 -0.551077 0.075452 0.9063 0.9063 0.9063
v -0.576780 -0.487155 0.075452 0.9063 0.9063 0.9063
v -0.609962 -0.539026 0.075452 0.9063 0.9063 0.9063
v -0.605641 -0.493737 0.075452 0.9063 0.9063 0.9063
v -0.619380 -0.515054 0.075452 0.9063 0.9063 0.9063
v -0.408635 -0.177507 -0.070891 0.9063 0.9063 0.9063
v -0.390291 -0.201969 -0.070808 0.9063 0.9063 0.9063
v -0.405725 -0.194308 -0.070941 0.9063 0.9063 0.9063
v -0.371651 -0.195772 -0.070573 0.9063 0.9063 0.9063
v -0.397334 -0.161236 -0.070687 0.9063 0.9063 0.9063
v -0.360469 -0.179724 -0.070371 0.9063 0.9063 0.9063
v -0.378469 -0.155138 -0.070449 0.9063 0.9063 0.9063
v -0.363261 -0.162701 -0.070319 0.9063 0.9063 0.9063
v -0.408636 -0.177507 -0.070774 0.9063 0.9063 0.9063
v -0.405726 -0.194308 -0.070824 0.9063 0.9063 0.9063
v -0.390293 -0.201969 -0.070692 0.9063 0.9063 0.9063
v -0.371652 -0.195773 -0.070456 0.9063 0.9063 0.9063
v -0.397335 -0.161237 -0.070570 0.9063 0.9063 0.9063
v -0.360470 -0.179724 -0.070254 0.9063 0.9063 0.9063
v -0.378471 -0.155139 -0.070332 0.9063 0.9063 0.9063
v -0.363262 -0.162701 -0.070202 0.9063 0.9063 0.9063
v -0.397009 -0.161749 -0.070659 0.9063 0.0000 0.0304
v -0.386382 -0.161603 -0.070541 0.9063 0.0000 0.0304
v -0.384350 -0.178548 -0.072999 0.9063 0.0000 0.0304
v -0.374854 -0.171427 -0.070462 0.9063 0.0000 0.0304
v -0.400011 -0.171692 -0.070740 0.9063 0.0000 0.0304
v -0.368977 -0.185307 -0.070465 0.9063 0.0000 0.0304
v -0.394130 -0.185583 -0.070744 0.9063 0.0000 0.0304
v -0.371982 -0.195257 -0.070547 0.9063 0.0000 0.0304
v -0.382372 -0.195516 -0.070663 0.9063 0.0000 0.0304
v -0.360227 -0.211750 -0.070655 0.9063 0.0000 0.0304
v -0.352656 -0.221898 -0.070515 0.9063 0.0000 0.0304
v -0.367577 -0.235704 -0.073442 0.9063 0.0000 0.0304
v -0.354070 -0.239884 -0.070421 0.9063 0.0000 0.0304
v -0.371914 -0.215807 -0.070752 0.9063 0.0000 0.0304
v -0.363347 -0.255257 -0.070425 0.9063 0.0000 0.0304
v -0.381200 -0.231191 -0.070756 0.9063 0.0000 0.0304
v -0.375045 -0.259315 -0.070522 0.9063 0.0000 0.0304
v -0.382559 -0.249476 -0.070660 0.9063 0.0000 0.0304
v -0.383552 -0.211555 -0.070931 0.9063 0.9063 0.9063
v -0.394319 -0.246350 -0.070833 0.9063 0.9063 0.9063
v -0.397721 -0.226109 -0.070991 0.9063 0.9063 0.9063
v -0.375310 -0.259994 -0.070553 0.9063 0.9063 0.9063
v -0.359959 -0.211079 -0.070688 0.9063 0.9063 0.9063
v -0.352014 -0.259558 -0.070313 0.9063 0.9063 0.9063
v -0.340889 -0.225009 -0.070405 0.9063 0.9063 0.9063
v -0.337548 -0.244964 -0.070250 0.9063 0.9063 0.9063
v -0.383553 -0.211554 -0.070792 0.9063 0.9063 0.9063
v -0.397722 -0.226108 -0.070852 0.9063 0.9063 0.9063
v -0.394320 -0.246349 -0.070694 0.9063 0.9063 0.9063
v -0.375312 -0.259994 -0.070413 0.9063 0.9063 0.9063
v -0.359960 -0.211078 -0.070549 0.9063 0.9063 0.9063
v -0.352015 -0.259558 -0.070173 0.9063 0.9063 0.9063
v -0.340890 -0.225008 -0.070266 0.9063 0.9063 0.9063
v -0.337550 -0.244963 -0.070111 0.9063 0.9063 0.9063
v -0.516738 -0.269015 -0.070947 0.9063 0.9063 0.9063
v -0.497013 -0.302281 -0.070843 0.9063 0.9063 0.9063
v -0.515374 -0.290539 -0.071010 0.9063 0.9063 0.9063
v -0.472728 -0.297036 -0.070545 0.9063 0.9063 0.9063
v -0.500305 -0.250099 -0.070689 0.9063 0.9063 0.9063
v -0.456474 -0.278383 -0.070290 0.9063 0.9063 0.9063
v -0.475751 -0.245008 -0.070389 0.9063 0.9063 0.9063
v -0.457659 -0.256595 -0.070224 0.9063 0.9063 0.9063
v -0.516740 -0.269015 -0.070799 0.9063 0.9063 0.9063
v -0.515375 -0.290540 -0.070863 0.9063 0.9063 0.9063
v -0.497015 -0.302281 -0.070695 0.9063 0.9063 0.9063
v -0.472730 -0.297036 -0.070397 0.9063 0.9063 0.9063
v -0.500306 -0.250100 -0.070541 0.9063 0.9063 0.9063
v -0.456476 -0.278383 -0.070142 0.9063 0.9063 0.9063
v -0.475752 -0.245009 -0.070241 0.9063 0.9063 0.9063
v -0.457661 -0.256596 -0.070076 0.9063 0.9063 0.9063
v -0.499967 -0.250788 -0.070653 0.9063 0.0000 0.0304
v -0.486583 -0.252057 -0.070505 0.9063 0.0000 0.0304
v -0.486344 -0.273642 -0.073613 0.9063 0.0000 0.0304
v -0.473430 -0.265984 -0.070405 0.9063 0.0000 0.0304
v -0.505099 -0.262881 -0.070757 0.9063 0.0000 0.0304
v -0.467935 -0.284241 -0.070409 0.9063 0.0000 0.0304
v -0.499602 -0.281152 -0.070761 0.9063 0.0000 0.0304
v -0.473074 -0.296342 -0.070512 0.9063 0.0000 0.0304
v -0.486174 -0.295249 -0.070659 0.9063 0.0000 0.0304
v -0.466092 -0.340938 -0.070646 0.9063 0.0000 0.0304
v -0.450233 -0.348733 -0.070450 0.9063 0.0000 0.0304
v -0.459996 -0.375375 -0.074536 0.9063 0.0000 0.0304
v -0.440556 -0.371980 -0.070319 0.9063 0.0000 0.0304
v -0.478035 -0.353409 -0.070781 0.9063 0.0000 0.0304
v -0.442309 -0.396979 -0.070324 0.9063 0.0000 0.0304
v -0.479792 -0.378428 -0.070787 0.9063 0.0000 0.0304
v -0.454263 -0.409459 -0.070460 0.9063 0.0000 0.0304
v -0.469855 -0.402012 -0.070652 0.9063 0.0000 0.0304
v -0.495199 -0.355526 -0.071031 0.9063 0.9063 0.9063
v -0.486454 -0.405604 -0.070894 0.9063 0.9063 0.9063
v -0.503551 -0.382618 -0.071115 0.9063 0.9063 0.9063
v -0.454160 -0.410472 -0.070503 0.9063 0.9063 0.9063
v -0.466187 -0.339933 -0.070692 0.9063 0.9063 0.9063
v -0.425492 -0.395119 -0.070168 0.9063 0.9063 0.9063
v -0.433635 -0.345117 -0.070297 0.9063 0.9063 0.9063
v -0.416797 -0.367788 -0.070081 0.9063 0.9063 0.9063
v -0.495201 -0.355526 -0.070837 0.9063 0.9063 0.9063
v -0.503552 -0.382617 -0.070920 0.9063 0.9063 0.9063
v -0.486457 -0.405604 -0.070700 0.9063 0.9063 0.9063
v -0.454163 -0.410472 -0.070309 0.9063 0.9063 0.9063
v -0.466189 -0.339933 -0.070498 0.9063 0.9063 0.9063
v -0.425494 -0.395119 -0.069973 0.9063 0.9063 0.9063
v -0.433637 -0.345116 -0.070103 0.9063 0.9063 0.9063
v -0.416800 -0.367788 -0.069886 0.9063 0.9063 0.9063
v -0.504212 -0.455689 -0.071106 0.9063 0.9063 0.9063
v -0.562055 -0.477030 -0.070940 0.9063 0.9063 0.9063
v -0.538354 -0.451626 -0.071208 0.9063 0.9063 0.9063
v -0.560830 -0.516619 -0.070466 0.9063 0.9063 0.9063
v -0.479290 -0.486907 -0.070695 0.9063 0.9063 0.9063
v -0.536268 -0.547479 -0.070059 0.9063 0.9063 0.9063
v -0.478384 -0.526874 -0.070216 0.9063 0.9063 0.9063
v -0.501765 -0.551900 -0.069953 0.9063 0.9063 0.9063
v -0.504212 -0.455687 -0.070871 0.9063 0.9063 0.9063
v -0.538354 -0.451623 -0.070972 0.9063 0.9063 0.9063
v -0.562055 -0.477026 -0.070705 0.9063 0.9063 0.9063
v -0.560830 -0.516616 -0.070230 0.9063 0.9063 0.9063
v -0.479290 -0.486904 -0.070459 0.9063 0.9063 0.9063
v -0.536268 -0.547477 -0.069823 0.9063 0.9063 0.9063
v -0.478384 -0.526871 -0.069980 0.9063 0.9063 0.9063
v -0.501766 -0.551897 -0.069717 0.9063 0.9063 0.9063
v -0.480468 -0.487239 -0.070639 0.9063 0.0000 0.0304
v -0.486314 -0.507858 -0.070401 0.9063 0.0000 0.0304
v -0.520226 -0.502012 -0.075357 0.9063 0.0000 0.0304
v -0.511942 -0.524467 -0.070242 0.9063 0.0000 0.0304
v -0.497949 -0.475707 -0.070803 0.9063 0.0000 0.0304
v -0.542150 -0.527821 -0.070249 0.9063 0.0000 0.0304
v -0.528180 -0.479060 -0.070810 0.9063 0.0000 0.0304
v -0.559643 -0.516276 -0.070414 0.9063 0.0000 0.0304
v -0.554154 -0.496052 -0.070647 0.9063 0.0000 0.0304
vn -0.0181 0.7536 0.6571
vn -0.5245 0.5737 0.6290
vn -0.8028 -0.0142 0.5960
vn -0.5217 -0.6012 0.6053
vn -0.0194 -0.7792 0.6264
vn 0.4879 -0.6022 0.6319
vn 0.7690 -0.0145 0.6391
vn 0.4907 0.5731 0.6563
vn 0.0168 0.7800 -0.6256
vn 0.5251 0.5989 -0.6046
vn 0.8026 0.0109 -0.5964
vn 0.5222 -0.5764 -0.6285
vn 0.0155 -0.7529 -0.6579
vn -0.4874 -0.5754 -0.6568
vn -0.7695 0.0107 -0.6385
vn -0.4902 0.5996 -0.6326
vn 0.0123 0.0933 0.9956
vn -0.1274 0.0869 0.9880
vn -0.0270 -0.0203 0.9994
vn -0.2277 -0.0420 0.9728
vn 0.0726 0.0852 0.9937
vn -0.1252 -0.1251 0.9842
vn 0.1750 0.0021 0.9846
vn -0.0656 -0.1337 0.9888
vn 0.0743 -0.1273 0.9891
vn 0.0271 0.0205 -0.9994
vn 0.0266 0.0208 -0.9994
vn -0.1215 0.7245 -0.6785
vn 0.0101 0.7613 -0.6483
vn -0.0423 0.6645 -0.7461
vn 0.1529 0.6985 -0.6991
vn -0.1739 0.6980 -0.6947
vn 0.0894 0.6170 -0.7819
vn -0.2358 0.6027 -0.7624
vn 0.0374 0.5947 -0.8031
vn -0.0939 0.5529 -0.8279
vn 0.0420 -0.6644 0.7462
vn 0.0425 -0.6640 0.7465
vn -0.3206 0.9472 0.0017
vn 0.2170 0.9761 0.0112
vn 0.7005 0.6545 -0.2845
vn 0.6649 0.1772 -0.7256
vn 0.2688 -0.0923 -0.9588
vn -0.2667 -0.1388 -0.9537
vn -0.7509 0.1640 -0.6398
vn -0.7205 0.6583 -0.2182
vn -0.2664 0.0943 0.9592
vn -0.6669 -0.1801 0.7231
vn -0.6986 -0.6573 0.2825
vn -0.2140 -0.9768 -0.0127
vn 0.3226 -0.9465 -0.0001
vn 0.7178 -0.6617 0.2166
vn 0.7525 -0.1666 0.6372
vn 0.2698 0.1373 0.9531
vn 0.2420 0.9551 -0.1711
vn 0.6756 0.6683 -0.3114
vn 0.7734 0.1059 -0.6251
vn 0.3363 -0.2934 -0.8949
vn -0.1957 -0.3010 -0.9333
vn -0.6309 -0.0290 -0.7754
vn -0.7319 0.5205 -0.4398
vn -0.2969 0.9355 -0.1915
vn 0.1983 0.3016 0.9326
vn -0.3402 0.2931 0.8935
vn -0.7743 -0.1089 0.6233
vn -0.6742 -0.6707 0.3094
vn -0.2395 -0.9556 0.1718
vn 0.2933 -0.9368 0.1910
vn 0.7315 -0.5233 0.4371
vn 0.6323 0.0256 0.7743
vn 0.0289 0.6089 -0.7927
vn 0.1608 0.5649 -0.8093
vn 0.0341 0.5094 -0.8599
vn 0.2198 0.4276 -0.8769
vn -0.0312 0.6165 -0.7867
vn 0.0980 0.3919 -0.9148
vn -0.1532 0.5699 -0.8073
vn 0.0385 0.4024 -0.9147
vn -0.0937 0.4425 -0.8918
vn -0.0342 -0.5092 0.8600
vn -0.0336 -0.5091 0.8601
vn -0.1632 0.0992 -0.9816
vn -0.0470 0.1774 -0.9830
vn -0.0649 0.0319 -0.9974
vn 0.1110 0.1337 -0.9848
vn -0.2065 0.0566 -0.9768
vn 0.0774 0.0062 -0.9970
vn -0.2381 -0.0715 -0.9686
vn 0.0343 -0.0362 -0.9988
vn -0.0813 -0.1147 -0.9901
vn 0.0646 -0.0318 0.9974
vn 0.0649 -0.0312 0.9974
vn -0.4972 0.6353 -0.5910
vn 0.0171 0.7932 -0.6087
vn 0.5912 0.4877 -0.6423
vn 0.7136 -0.1503 -0.6843
vn 0.4158 -0.5923 -0.6902
vn -0.0947 -0.7540 -0.6500
vn -0.6690 -0.4514 -0.5904
vn -0.7969 0.1863 -0.5746
vn -0.4143 0.5945 0.6891
vn -0.7150 0.1463 0.6837
vn -0.5889 -0.4902 0.6425
vn -0.0139 -0.7939 0.6079
vn 0.4989 -0.6333 0.5916
vn 0.7956 -0.1900 0.5753
vn 0.6716 0.4486 0.5897
vn 0.0985 0.7532 0.6504
vn -0.0750 0.8031 -0.5912
vn 0.4433 0.6581 -0.6087
vn 0.7611 0.0908 -0.6423
vn 0.5192 -0.5119 -0.6844
vn 0.0297 -0.7229 -0.6903
vn -0.4873 -0.5831 -0.6501
vn -0.8066 -0.0180 -0.5908
vn -0.5696 0.5875 -0.5748
vn -0.0272 0.7243 0.6889
vn -0.5227 0.5095 0.6835
vn -0.7608 -0.0942 0.6421
vn -0.4408 -0.6604 0.6079
vn 0.0776 -0.8026 0.5915
vn 0.5666 -0.5900 0.5752
vn 0.8074 0.0143 0.5898
vn 0.4897 0.5805 0.6505
vn -0.0837 0.1717 -0.9816
vn 0.0563 0.1747 -0.9830
vn -0.0373 0.0619 -0.9974
vn 0.1657 0.0524 -0.9848
vn -0.1431 0.1592 -0.9768
vn 0.0684 -0.0366 -0.9970
vn -0.2390 0.0685 -0.9686
vn 0.0093 -0.0490 -0.9988
vn -0.1304 -0.0526 -0.9901
vn 0.0372 -0.0617 0.9974
vn 0.0377 -0.0614 0.9974
vn 0.9927 0.1137 -0.0392
vn 0.9892 0.1070 0.1006
vn 1.0000 0.0002 -0.0002
vn 0.9793 -0.0222 0.2011
vn 0.9894 0.1056 -0.0995
vn 0.9896 -0.1050 0.0983
vn 0.9792 0.0223 -0.2017
vn 0.9928 -0.1134 0.0386
vn 0.9891 -0.1070 -0.1013
vn -1.0000 -0.0000 -0.0000
vn -1.0000 0.0003 0.0006
vn 0.6417 0.7670 0.0014
vn 0.6312 0.5861 0.5080
vn 0.6178 -0.0026 0.7863
vn 0.6315 -0.5891 0.5042
vn 0.6425 -0.7663 0.0015
vn 0.6305 -0.5891 -0.5054
vn 0.6181 -0.0012 -0.7861
vn 0.6309 0.5868 -0.5076
vn -0.6417 0.7670 0.0014
vn -0.6309 0.5868 -0.5076
vn -0.6181 -0.0012 -0.7861
vn -0.6306 -0.5891 -0.5054
vn -0.6425 -0.7663 0.0015
vn -0.6315 -0.5891 0.5043
vn -0.6174 -0.0029 0.7866
vn -0.6312 0.5861 0.5081
vn -0.4424 0.4708 -0.7633
vn 0.0717 0.6314 -0.7721
vn 0.6461 0.3382 -0.6843
vn 0.7713 -0.2897 -0.5667
vn 0.4753 -0.7269 -0.4958
vn -0.0371 -0.8855 -0.4633
vn -0.6135 -0.5892 -0.5258
vn -0.7421 0.0319 -0.6695
vn -0.4740 0.7293 0.4935
vn -0.7734 0.2854 0.5660
vn -0.6442 -0.3409 0.6847
vn -0.0677 -0.6322 0.7718
vn 0.4443 -0.4696 0.7629
vn 0.7414 -0.0357 0.6701
vn 0.6165 0.5863 0.5255
vn 0.0399 0.8849 0.4642
vn -0.0752 -0.1335 -0.9882
vn 0.0407 -0.0554 -0.9976
vn 0.0242 -0.2006 -0.9794
vn 0.1983 -0.0951 -0.9755
vn -0.1187 -0.1747 -0.9774
vn 0.1658 -0.2226 -0.9607
vn -0.1509 -0.2981 -0.9425
vn 0.1231 -0.2651 -0.9563
vn 0.0071 -0.3419 -0.9397
vn -0.0245 0.2007 0.9793
vn -0.0242 0.2013 0.9792
vn -0.0319 0.1160 0.9927
vn -0.1435 0.0315 0.9892
vn -0.0000 0.0003 1.0000
vn -0.1534 -0.1319 0.9793
vn 0.0224 0.1434 0.9894
vn -0.0219 -0.1422 0.9896
vn 0.1538 0.1323 0.9792
vn 0.0322 -0.1154 0.9928
vn 0.1440 -0.0311 0.9891
vn -0.0000 -0.0000 -1.0000
vn -0.0007 -0.0001 -1.0000
vn -0.4341 0.6323 0.6417
vn -0.7502 0.1969 0.6312
vn -0.6475 -0.4461 0.6178
vn -0.0836 -0.7709 0.6314
vn 0.4315 -0.6332 0.6426
vn 0.7498 -0.2004 0.6306
vn 0.6493 0.4432 0.6181
vn 0.0877 0.7710 0.6308
vn -0.4341 0.6323 -0.6417
vn 0.0877 0.7710 -0.6308
vn 0.6493 0.4432 -0.6181
vn 0.7498 -0.2004 -0.6306
vn 0.4315 -0.6332 -0.6426
vn -0.0836 -0.7709 -0.6314
vn -0.6475 -0.4466 -0.6174
vn -0.7502 0.1969 -0.6312
vn 0.3203 0.6968 0.6417
vn -0.2156 0.7451 0.6312
vn -0.7150 0.3272 0.6178
vn -0.7047 -0.3235 0.6314
vn -0.3224 -0.6951 0.6426
vn 0.2124 -0.7465 0.6306
vn 0.7134 -0.3302 0.6181
vn 0.7069 0.3200 0.6308
vn 0.3203 0.6968 -0.6417
vn 0.7069 0.3200 -0.6308
vn 0.7134 -0.3302 -0.6181
vn 0.2124 -0.7465 -0.6306
vn -0.3224 -0.6951 -0.6426
vn -0.7047 -0.3235 -0.6314
vn -0.7154 0.3270 -0.6174
vn -0.2156 0.7451 -0.6312
vn 0.0832 0.0868 0.9927
vn -0.0465 0.1393 0.9892
vn 0.0002 0.0001 1.0000
vn -0.1919 0.0641 0.9793
vn 0.1346 0.0542 0.9894
vn -0.1333 -0.0541 0.9896
vn 0.1925 -0.0642 0.9792
vn -0.0826 -0.0868 0.9928
vn 0.0471 -0.1396 0.9891
vn -0.0004 0.0005 -1.0000
vn -0.1055 -0.0527 0.9930
vn -0.0903 -0.1910 0.9774
vn 0.0102 -0.0851 0.9963
vn 0.0448 -0.2821 0.9583
vn -0.1012 0.0080 0.9948
vn 0.1212 -0.1757 0.9770
vn -0.0245 0.1157 0.9930
vn 0.1260 -0.1160 0.9852
vn 0.1109 0.0230 0.9936
vn -0.0104 0.0853 -0.9963
vn -0.0107 0.0846 -0.9964
vn -0.7586 -0.1035 0.6432
vn -0.5472 -0.5953 0.5883
vn 0.0572 -0.8345 0.5481
vn 0.6254 -0.5189 0.5828
vn 0.7716 -0.0088 0.6361
vn 0.5633 0.4856 0.6685
vn -0.0409 0.7291 0.6832
vn -0.6102 0.4147 0.6750
vn -0.7721 0.0060 -0.6354
vn -0.6234 0.5223 -0.5819
vn -0.0538 0.8345 -0.5484
vn 0.5501 0.5931 -0.5880
vn 0.7581 0.1008 -0.6443
vn 0.6122 -0.4112 -0.6754
vn 0.0447 -0.7294 -0.6826
vn -0.5605 -0.4877 -0.6694
vn -0.0871 0.0829 0.9927
vn -0.1392 -0.0470 0.9892
vn -0.0001 0.0002 1.0000
vn -0.0634 -0.1922 0.9793
vn -0.0547 0.1344 0.9894
vn 0.0546 -0.1331 0.9896
vn 0.0635 0.1927 0.9792
vn 0.0871 -0.0823 0.9928
vn 0.1394 0.0476 0.9891
vn -0.0005 -0.0004 -1.0000
vn -0.6980 0.3178 0.6417
vn -0.7443 -0.2183 0.6312
vn -0.3245 -0.7162 0.6178
vn 0.3261 -0.7035 0.6314
vn 0.6963 -0.3199 0.6426
vn 0.7457 0.2151 0.6306
vn 0.3276 0.7146 0.6181
vn -0.3226 0.7057 0.6308
vn -0.6980 0.3178 -0.6417
vn -0.3226 0.7057 -0.6308
vn 0.3276 0.7146 -0.6181
vn 0.7457 0.2151 -0.6306
vn 0.6963 -0.3199 -0.6426
vn 0.3261 -0.7035 -0.6314
vn -0.3243 -0.7166 -0.6174
vn -0.7443 -0.2183 -0.6312
vn 0.4071 0.6500 0.6417
vn -0.1182 0.7666 0.6312
vn -0.6671 0.4162 0.6178
vn -0.7404 -0.2304 0.6314
vn -0.4089 -0.6480 0.6426
vn 0.1148 -0.7676 0.6306
vn 0.6651 -0.4190 0.6181
vn 0.7421 0.2266 0.6308
vn 0.4071 0.6500 -0.6417
vn 0.7421 0.2266 -0.6308
vn 0.6651 -0.4190 -0.6181
vn 0.1148 -0.7676 -0.6306
vn -0.4089 -0.6480 -0.6426
vn -0.7404 -0.2304 -0.6314
vn -0.6676 0.4161 -0.6174
vn -0.1182 0.7666 -0.6312
vn 0.0937 0.0754 0.9927
vn -0.0283 0.1442 0.9892
vn -0.1821 0.0882 0.9793
vn 0.1404 0.0365 0.9894
vn -0.1391 -0.0366 0.9896
vn 0.1826 -0.0884 0.9792
vn -0.0931 -0.0755 0.9928
vn 0.0288 -0.1445 0.9891
vn -0.0003 0.0006 -1.0000
vn 0.0173 0.1190 0.9927
vn -0.1188 0.0864 0.9892
vn 0.0001 0.0002 1.0000
vn -0.1935 -0.0593 0.9793
vn 0.0781 0.1223 0.9894
vn -0.0771 -0.1215 0.9896
vn 0.1940 0.0595 0.9792
vn -0.0168 -0.1187 0.9928
vn 0.1194 -0.0862 0.9891
vn -0.0006 0.0002 -1.0000
vn -0.1440 0.7533 0.6417
vn -0.6082 0.4813 0.6312
vn -0.7721 -0.1489 0.6178
vn -0.3858 -0.6726 0.6314
vn 0.1413 -0.7531 0.6426
vn 0.6065 -0.4844 0.6306
vn 0.7725 0.1455 0.6181
vn 0.3896 0.6711 0.6308
vn -0.1440 0.7533 -0.6417
vn 0.3896 0.6711 -0.6308
vn 0.7725 0.1455 -0.6181
vn 0.6065 -0.4844 -0.6306
vn 0.1413 -0.7531 -0.6426
vn -0.3858 -0.6726 -0.6314
vn -0.7723 -0.1493 -0.6174
vn -0.6082 0.4813 -0.6312
vn 0.0506 0.1091 0.9927
vn -0.0891 0.1168 0.9892
vn 0.0002 0.0002 1.0000
vn -0.2024 -0.0015 0.9793
vn 0.1098 0.0949 0.9894
vn -0.1086 -0.0944 0.9896
vn 0.2029 0.0016 0.9792
vn -0.0501 -0.1089 0.9928
vn 0.0898 -0.1168 0.9891
vn -0.0006 0.0004 -1.0000
vn 0.0775 0.7630 0.6417
vn -0.4451 0.6352 0.6312
vn -0.7824 0.0782 0.6178
vn -0.5621 -0.5342 0.6314
vn -0.0801 -0.7620 0.6426
vn 0.4426 -0.6376 0.6306
vn 0.7819 -0.0815 0.6181
vn 0.5653 0.5316 0.6308
vn 0.0775 0.7630 -0.6417
vn 0.5653 0.5316 -0.6308
vn 0.7819 -0.0815 -0.6181
vn 0.4426 -0.6376 -0.6306
vn -0.0801 -0.7620 -0.6426
vn -0.5621 -0.5342 -0.6314
vn -0.7828 0.0778 -0.6174
vn -0.4451 0.6352 -0.6312
vn -0.4497 0.6191 -0.6438
vn 0.0647 0.7767 -0.6265
vn 0.6392 0.4703 -0.6085
vn 0.7629 -0.1688 -0.6241
vn 0.4654 -0.6107 -0.6407
vn -0.0471 -0.7713 -0.6347
vn -0.6234 -0.4672 -0.6270
vn -0.7505 0.1708 -0.6384
vn -0.4641 0.6129 0.6395
vn -0.7646 0.1645 0.6232
vn -0.6369 -0.4727 0.6091
vn -0.0612 -0.7772 0.6263
vn 0.4517 -0.6171 0.6444
vn 0.7494 -0.1743 0.6387
vn 0.6258 0.4642 0.6267
vn 0.0505 0.7702 0.6358
vn -0.0884 0.0727 -0.9934
vn 0.0277 0.1508 -0.9882
vn 0.0108 0.0049 -0.9999
vn 0.1854 0.1070 -0.9768
vn -0.1320 0.0302 -0.9908
vn 0.1525 -0.0207 -0.9881
vn -0.1643 -0.0976 -0.9816
vn 0.1096 -0.0631 -0.9920
vn -0.0065 -0.1414 -0.9899
vn -0.0110 -0.0049 0.9999
vn -0.0107 -0.0043 0.9999
vn 0.0070 0.1142 -0.9934
vn 0.1383 0.0660 -0.9882
vn 0.0103 -0.0058 -0.9999
vn 0.1955 -0.0873 -0.9768
vn -0.0530 0.1246 -0.9908
vn 0.0727 -0.1356 -0.9881
vn -0.1755 0.0758 -0.9816
vn 0.0132 -0.1258 -0.9920
vn -0.1183 -0.0777 -0.9899
vn -0.0104 0.0060 0.9999
vn -0.0098 0.0062 0.9999
vn 0.2373 0.7275 -0.6438
vn 0.6667 0.4036 -0.6266
vn 0.7559 -0.2415 -0.6085
vn 0.3111 -0.7169 -0.6239
vn -0.2211 -0.7352 -0.6407
vn -0.6519 -0.4146 -0.6349
vn -0.7441 0.2306 -0.6270
vn -0.3024 0.7080 -0.6382
vn 0.2238 0.7354 0.6396
vn -0.3154 0.7155 0.6234
vn -0.7565 0.2381 0.6091
vn -0.6654 -0.4065 0.6261
vn -0.2346 -0.7279 0.6443
vn 0.2988 -0.7089 0.6388
vn 0.7433 -0.2342 0.6267
vn 0.6534 0.4111 0.6357
vn -0.3803 0.6639 -0.6439
vn 0.1481 0.7651 -0.6267
vn 0.6864 0.3984 -0.6085
vn 0.7403 -0.2503 -0.6239
vn 0.3968 -0.6574 -0.6406
vn -0.1301 -0.7618 -0.6346
vn -0.6703 -0.3972 -0.6269
vn -0.7279 0.2507 -0.6382
vn -0.3951 0.6596 0.6394
vn -0.7421 0.2463 0.6233
vn -0.6841 -0.4011 0.6092
vn -0.1448 -0.7659 0.6264
vn 0.3823 -0.6622 0.6444
vn 0.7261 -0.2541 0.6389
vn 0.6723 0.3940 0.6267
vn 0.1336 0.7604 0.6356
vn -0.0800 0.0818 -0.9934
vn 0.0439 0.1469 -0.9882
vn 0.0112 0.0038 -0.9999
vn 0.1959 0.0864 -0.9768
vn -0.1279 0.0443 -0.9908
vn 0.1493 -0.0371 -0.9881
vn -0.1739 -0.0793 -0.9816
vn 0.1022 -0.0746 -0.9920
vn -0.0217 -0.1399 -0.9899
vn -0.0115 -0.0037 0.9999
vn -0.0111 -0.0031 0.9999
vn -0.0458 0.1048 -0.9934
vn 0.0931 0.1218 -0.9882
vn 0.0118 -0.0005 -0.9999
vn 0.2138 0.0113 -0.9768
vn -0.1039 0.0868 -0.9908
vn 0.1265 -0.0876 -0.9881
vn -0.1908 -0.0125 -0.9816
vn 0.0691 -0.1060 -0.9920
vn -0.0699 -0.1231 -0.9899
vn -0.0120 0.0006 0.9999
vn -0.0115 0.0010 0.9999
vn -0.1204 0.7557 -0.6438
vn 0.4097 0.6629 -0.6267
vn 0.7830 0.1292 -0.6084
vn 0.6035 -0.4965 -0.6239
vn 0.1381 -0.7554 -0.6406
vn -0.3917 -0.6662 -0.6346
vn -0.7674 -0.1338 -0.6270
vn -0.5917 0.4926 -0.6381
vn -0.1355 0.7568 0.6395
vn -0.6067 0.4932 0.6234
vn -0.7820 -0.1326 0.6090
vn -0.4069 -0.6648 0.6265
vn 0.1227 -0.7547 0.6445
vn 0.5889 -0.4950 0.6389
vn 0.7683 0.1301 0.6268
vn 0.3943 0.6637 0.6356
vn 0.7218 0.2540 -0.6439
vn 0.7257 -0.2841 -0.6266
vn 0.2678 -0.7470 -0.6085
vn -0.3799 -0.6828 -0.6241
vn -0.7181 -0.2714 -0.6408
vn -0.7257 0.2656 -0.6347
vn -0.2696 0.7310 -0.6269
vn 0.3783 0.6706 -0.6381
vn 0.7201 0.2693 0.6395
vn 0.3763 0.6854 0.6235
vn -0.2707 0.7454 0.6092
vn -0.7271 0.2810 0.6263
vn -0.7206 -0.2563 0.6443
vn -0.3813 -0.6684 0.6387
vn 0.2660 -0.7325 0.6267
vn 0.7237 -0.2686 0.6357
vn 0.0949 0.0639 -0.9934
vn 0.1365 -0.0697 -0.9882
vn 0.0017 -0.0117 -0.9999
vn 0.0495 -0.2083 -0.9768
vn 0.0667 0.1178 -0.9908
vn -0.0635 -0.1402 -0.9881
vn -0.0466 0.1854 -0.9816
vn -0.0918 -0.0870 -0.9920
vn -0.1337 0.0467 -0.9899
vn -0.0015 0.0119 0.9999
vn -0.0010 0.0115 0.9999
vt 0.182890 0.474615
vt 0.240617 0.469953
vt 0.321498 0.468750
vt 0.379371 0.471731
vt 0.379371 0.477042
vt 0.322803 0.481684
vt 0.240763 0.482908
vt 0.183031 0.479993
vt 0.000000 0.501268
vt 0.049417 0.499461
vt 0.082698 0.502348
vt 0.117095 0.499399
vt 0.000009 0.503661
vt 0.164115 0.501054
vt 0.047059 0.505317
vt 0.164115 0.503448
vt 0.115970 0.505237
vt 0.597556 0.499771
vt 0.568294 0.502270
vt 0.528543 0.501625
vt 0.500306 0.498334
vt 0.500580 0.494191
vt 0.529559 0.491763
vt 0.569345 0.492409
vt 0.597556 0.495697
s 1
usemtl Meshpart1Mtl.007
f 5/1/1 7/2/2 8/3/3 6/4/4 4/5/5 2/6/6 3/7/7 1/8/8
f 13/1/9 9/8/10 10/7/11 11/6/12 12/5/13 14/4/14 16/3/15 15/2/16
f 3/7/7 10/7/11 9/8/10 1/8/8
f 7/2/2 15/2/16 16/3/15 8/3/3
f 5/1/1 13/1/9 15/2/16 7/2/2
f 1/8/8 9/8/10 13/1/9 5/1/1
f 2/6/6 11/6/12 10/7/11 3/7/7
f 8/3/3 16/3/15 14/4/14 6/4/4
f 6/4/4 14/4/14 12/5/13 4/5/5
f 4/5/5 12/5/13 11/6/12 2/6/6
usemtl Meshpart2Mtl.005
f 17/9/17 18/10/18 19/11/19
f 18/10/18 20/12/20 19/11/19
f 21/13/21 17/9/17 19/11/19
f 20/12/20 22/14/22 19/11/19
f 23/15/23 21/13/21 19/11/19
f 22/14/22 24/16/24 19/11/19
f 25/17/25 23/15/23 19/11/19
f 24/16/24 25/17/25 19/11/19
f 18/18/26 17/19/27 21/20/26 23/21/26 25/22/26 24/23/26 22/24/26 20/25/26
usemtl Meshpart2Mtl.001
f 26/9/28 27/10/29 28/11/30
f 27/10/29 29/12/31 28/11/30
f 30/13/32 26/9/28 28/11/30
f 29/12/31 31/14/33 28/11/30
f 32/15/34 30/13/32 28/11/30
f 31/14/33 33/16/35 28/11/30
f 34/17/36 32/15/34 28/11/30
f 33/16/35 34/17/36 28/11/30
f 27/18/37 26/19/38 30/20/37 32/21/37 34/22/37 33/23/37 31/24/37 29/25/37
usemtl Meshpart1Mtl.003
f 39/1/39 41/2/40 42/3/41 40/4/42 38/5/43 36/6/44 37/7/45 35/8/46
f 47/1/47 43/8/48 44/7/49 45/6/50 46/5/51 48/4/52 50/3/53 49/2/54
f 37/7/45 44/7/49 43/8/48 35/8/46
f 41/2/40 49/2/54 50/3/53 42/3/41
f 39/1/39 47/1/47 49/2/54 41/2/40
f 35/8/46 43/8/48 47/1/47 39/1/39
f 36/6/44 45/6/50 44/7/49 37/7/45
f 42/3/41 50/3/53 48/4/52 40/4/42
f 40/4/42 48/4/52 46/5/51 38/5/43
f 38/5/43 46/5/51 45/6/50 36/6/44
usemtl Meshpart1Mtl.004
f 55/1/55 57/2/56 58/3/57 56/4/58 54/5/59 52/6/60 53/7/61 51/8/62
f 63/1/63 59/8/64 60/7/65 61/6/66 62/5/67 64/4/68 66/3/69 65/2/70
f 53/7/61 60/7/65 59/8/64 51/8/62
f 57/2/56 65/2/70 66/3/69 58/3/57
f 55/1/55 63/1/63 65/2/70 57/2/56
f 51/8/62 59/8/64 63/1/63 55/1/55
f 52/6/60 61/6/66 60/7/65 53/7/61
f 58/3/57 66/3/69 64/4/68 56/4/58
f 56/4/58 64/4/68 62/5/67 54/5/59
f 54/5/59 62/5/67 61/6/66 52/6/60
usemtl Meshpart2Mtl.002
f 67/9/71 68/10/72 69/11/73
f 68/10/72 70/12/74 69/11/73
f 71/13/75 67/9/71 69/11/73
f 70/12/74 72/14/76 69/11/73
f 73/15/77 71/13/75 69/11/73
f 72/14/76 74/16/78 69/11/73
f 75/17/79 73/15/77 69/11/73
f 74/16/78 75/17/79 69/11/73
f 68/18/80 67/19/81 71/20/80 73/21/80 75/22/80 74/23/80 72/24/80 70/25/80
usemtl Meshpart2Mtl.003
f 76/9/82 77/10/83 78/11/84
f 77/10/83 79/12/85 78/11/84
f 80/13/86 76/9/82 78/11/84
f 79/12/85 81/14/87 78/11/84
f 82/15/88 80/13/86 78/11/84
f 81/14/87 83/16/89 78/11/84
f 84/17/90 82/15/88 78/11/84
f 83/16/89 84/17/90 78/11/84
f 77/18/91 76/19/92 80/20/91 82/21/91 84/22/91 83/23/91 81/24/91 79/25/91
usemtl Meshpart1Mtl.008
f 89/1/93 91/2/94 92/3/95 90/4/96 88/5/97 86/6/98 87/7/99 85/8/100
f 97/1/101 93/8/102 94/7/103 95/6/104 96/5/105 98/4/106 100/3/107 99/2/108
f 87/7/99 94/7/103 93/8/102 85/8/100
f 91/2/94 99/2/108 100/3/107 92/3/95
f 89/1/93 97/1/101 99/2/108 91/2/94
f 85/8/100 93/8/102 97/1/101 89/1/93
f 86/6/98 95/6/104 94/7/103 87/7/99
f 92/3/95 100/3/107 98/4/106 90/4/96
f 90/4/96 98/4/106 96/5/105 88/5/97
f 88/5/97 96/5/105 95/6/104 86/6/98
usemtl Meshpart1Mtl.009
f 105/1/109 107/2/110 108/3/111 106/4/112 104/5/113 102/6/114 103/7/115 101/8/116
f 113/1/117 109/8/118 110/7/119 111/6/120 112/5/121 114/4/122 116/3/123 115/2/124
f 103/7/115 110/7/119 109/8/118 101/8/116
f 107/2/110 115/2/124 116/3/123 108/3/111
f 105/1/109 113/1/117 115/2/124 107/2/110
f 101/8/116 109/8/118 113/1/117 105/1/109
f 102/6/114 111/6/120 110/7/119 103/7/115
f 108/3/111 116/3/123 114/4/122 106/4/112
f 106/4/112 114/4/122 112/5/121 104/5/113
f 104/5/113 112/5/121 111/6/120 102/6/114
usemtl Meshpart2Mtl.004
f 117/9/125 118/10/126 119/11/127
f 118/10/126 120/12/128 119/11/127
f 121/13/129 117/9/125 119/11/127
f 120/12/128 122/14/130 119/11/127
f 123/15/131 121/13/129 119/11/127
f 122/14/130 124/16/132 119/11/127
f 125/17/133 123/15/131 119/11/127
f 124/16/132 125/17/133 119/11/127
f 118/18/134 117/19/135 121/20/134 123/21/134 125/22/134 124/23/134 122/24/134 120/25/134
usemtl Meshpart2Mtl.006
f 126/9/136 127/10/137 128/11/138
f 127/10/137 129/12/139 128/11/138
f 130/13/140 126/9/136 128/11/138
f 129/12/139 131/14/141 128/11/138
f 132/15/142 130/13/140 128/11/138
f 131/14/141 133/16/143 128/11/138
f 134/17/144 132/15/142 128/11/138
f 133/16/143 134/17/144 128/11/138
f 127/18/145 126/19/146 130/20/145 132/21/145 134/22/145 133/23/145 131/24/145 129/25/145
usemtl Meshpart1Mtl.012
f 139/1/147 141/2/148 142/3/149 140/4/150 138/5/151 136/6/152 137/7/153 135/8/154
f 147/1/155 143/8/156 144/7/157 145/6/158 146/5/159 148/4/160 150/3/161 149/2/162
f 137/7/153 144/7/157 143/8/156 135/8/154
f 141/2/148 149/2/162 150/3/161 142/3/149
f 139/1/147 147/1/155 149/2/162 141/2/148
f 135/8/154 143/8/156 147/1/155 139/1/147
f 136/6/152 145/6/158 144/7/157 137/7/153
f 142/3/149 150/3/161 148/4/160 140/4/150
f 140/4/150 148/4/160 146/5/159 138/5/151
f 138/5/151 146/5/159 145/6/158 136/6/152
usemtl Meshpart1Mtl.013
f 155/1/163 157/2/164 158/3/165 156/4/166 154/5/167 152/6/168 153/7/169 151/8/170
f 163/1/171 159/8/172 160/7/173 161/6/174 162/5/175 164/4/176 166/3/177 165/2/178
f 153/7/169 160/7/173 159/8/172 151/8/170
f 157/2/164 165/2/178 166/3/177 158/3/165
f 155/1/163 163/1/171 165/2/178 157/2/164
f 151/8/170 159/8/172 163/1/171 155/1/163
f 152/6/168 161/6/174 160/7/173 153/7/169
f 158/3/165 166/3/177 164/4/176 156/4/166
f 156/4/166 164/4/176 162/5/175 154/5/167
f 154/5/167 162/5/175 161/6/174 152/6/168
usemtl Meshpart2Mtl.007
f 167/9/179 168/10/180 169/11/181
f 168/10/180 170/12/182 169/11/181
f 171/13/183 167/9/179 169/11/181
f 170/12/182 172/14/184 169/11/181
f 173/15/185 171/13/183 169/11/181
f 172/14/184 174/16/186 169/11/181
f 175/17/187 173/15/185 169/11/181
f 174/16/186 175/17/187 169/11/181
f 168/18/188 167/19/189 171/20/188 173/21/188 175/22/188 174/23/188 172/24/188 170/25/188
usemtl Meshpart2Mtl.008
f 176/9/190 177/10/191 178/11/192
f 177/10/191 179/12/193 178/11/192
f 180/13/194 176/9/190 178/11/192
f 179/12/193 181/14/195 178/11/192
f 182/15/196 180/13/194 178/11/192
f 181/14/195 183/16/197 178/11/192
f 184/17/198 182/15/196 178/11/192
f 183/16/197 184/17/198 178/11/192
f 177/18/199 176/19/200 180/20/199 182/21/199 184/22/199 183/23/199 181/24/199 179/25/199
usemtl Meshpart1Mtl.016
f 189/1/201 191/2/202 192/3/203 190/4/204 188/5/205 186/6/206 187/7/207 185/8/208
f 197/1/209 193/8/210 194/7/211 195/6/212 196/5/213 198/4/214 200/3/215 199/2/216
f 187/7/207 194/7/211 193/8/210 185/8/208
f 191/2/202 199/2/216 200/3/215 192/3/203
f 189/1/201 197/1/209 199/2/216 191/2/202
f 185/8/208 193/8/210 197/1/209 189/1/201
f 186/6/206 195/6/212 194/7/211 187/7/207
f 192/3/203 200/3/215 198/4/214 190/4/204
f 190/4/204 198/4/214 196/5/213 188/5/205
f 188/5/205 196/5/213 195/6/212 186/6/206
usemtl Meshpart1Mtl.017
f 205/1/217 207/2/218 208/3/219 206/4/220 204/5/221 202/6/222 203/7/223 201/8/224
f 213/1/225 209/8/226 210/7/227 211/6/228 212/5/229 214/4/230 216/3/231 215/2/232
f 203/7/223 210/7/227 209/8/226 201/8/224
f 207/2/218 215/2/232 216/3/231 208/3/219
f 205/1/217 213/1/225 215/2/232 207/2/218
f 201/8/224 209/8/226 213/1/225 205/1/217
f 202/6/222 211/6/228 210/7/227 203/7/223
f 208/3/219 216/3/231 214/4/230 206/4/220
f 206/4/220 214/4/230 212/5/229 204/5/221
f 204/5/221 212/5/229 211/6/228 202/6/222
usemtl Meshpart2Mtl.009
f 217/9/233 218/10/234 219/11/235
f 218/10/234 220/12/236 219/11/235
f 221/13/237 217/9/233 219/11/235
f 220/12/236 222/14/238 219/11/235
f 223/15/239 221/13/237 219/11/235
f 222/14/238 224/16/240 219/11/235
f 225/17/241 223/15/239 219/11/235
f 224/16/240 225/17/241 219/11/235
f 218/18/199 217/19/242 221/20/199 223/21/199 225/22/199 224/23/199 222/24/199 220/25/199
usemtl Meshpart2Mtl.010
f 226/9/243 227/10/244 228/11/245
f 227/10/244 229/12/246 228/11/245
f 230/13/247 226/9/243 228/11/245
f 229/12/246 231/14/248 228/11/245
f 232/15/249 230/13/247 228/11/245
f 231/14/248 233/16/250 228/11/245
f 234/17/251 232/15/249 228/11/245
f 233/16/250 234/17/251 228/11/245
f 227/18/252 226/19/253 230/20/252 232/21/252 234/22/252 233/23/252 231/24/252 229/25/252
usemtl Meshpart1Mtl.020
f 239/1/254 241/2/255 242/3/256 240/4/257 238/5/258 236/6/259 237/7/260 235/8/261
f 247/1/262 243/8/263 244/7/264 245/6/265 246/5/266 248/4/267 250/3/268 249/2/269
f 237/7/260 244/7/264 243/8/263 235/8/261
f 241/2/255 249/2/269 250/3/268 242/3/256
f 239/1/254 247/1/262 249/2/269 241/2/255
f 235/8/261 243/8/263 247/1/262 239/1/254
f 236/6/259 245/6/265 244/7/264 237/7/260
f 242/3/256 250/3/268 248/4/267 240/4/257
f 240/4/257 248/4/267 246/5/266 238/5/258
f 238/5/258 246/5/266 245/6/265 236/6/259
usemtl Meshpart2Mtl.011
f 251/9/270 252/10/271 253/11/272
f 252/10/271 254/12/273 253/11/272
f 255/13/274 251/9/270 253/11/272
f 254/12/273 256/14/275 253/11/272
f 257/15/276 255/13/274 253/11/272
f 256/14/275 258/16/277 253/11/272
f 259/17/278 257/15/276 253/11/272
f 258/16/277 259/17/278 253/11/272
f 252/18/199 251/19/279 255/20/199 257/21/199 259/22/199 258/23/199 256/24/199 254/25/199
usemtl Meshpart1Mtl.022
f 264/1/280 266/2/281 267/3/282 265/4/283 263/5/284 261/6/285 262/7/286 260/8/287
f 272/1/288 268/8/289 269/7/290 270/6/291 271/5/292 273/4/293 275/3/294 274/2/295
f 262/7/286 269/7/290 268/8/289 260/8/287
f 266/2/281 274/2/295 275/3/294 267/3/282
f 264/1/280 272/1/288 274/2/295 266/2/281
f 260/8/287 268/8/289 272/1/288 264/1/280
f 261/6/285 270/6/291 269/7/290 262/7/286
f 267/3/282 275/3/294 273/4/293 265/4/283
f 265/4/283 273/4/293 271/5/292 263/5/284
f 263/5/284 271/5/292 270/6/291 261/6/285
usemtl Meshpart1Mtl.023
f 280/1/296 282/2/297 283/3/298 281/4/299 279/5/300 277/6/301 278/7/302 276/8/303
f 288/1/304 284/8/305 285/7/306 286/6/307 287/5/308 289/4/309 291/3/310 290/2/311
f 278/7/302 285/7/306 284/8/305 276/8/303
f 282/2/297 290/2/311 291/3/310 283/3/298
f 280/1/296 288/1/304 290/2/311 282/2/297
f 276/8/303 284/8/305 288/1/304 280/1/296
f 277/6/301 286/6/307 285/7/306 278/7/302
f 283/3/298 291/3/310 289/4/309 281/4/299
f 281/4/299 289/4/309 287/5/308 279/5/300
f 279/5/300 287/5/308 286/6/307 277/6/301
usemtl Meshpart2Mtl.012
f 292/9/312 293/10/313 294/11/235
f 293/10/313 295/12/314 294/11/235
f 296/13/315 292/9/312 294/11/235
f 295/12/314 297/14/316 294/11/235
f 298/15/317 296/13/315 294/11/235
f 297/14/316 299/16/318 294/11/235
f 300/17/319 298/15/317 294/11/235
f 299/16/318 300/17/319 294/11/235
f 293/18/199 292/19/320 296/20/199 298/21/199 300/22/199 299/23/199 297/24/199 295/25/199
usemtl Meshpart2Mtl.013
f 301/9/321 302/10/322 303/11/323
f 302/10/322 304/12/324 303/11/323
f 305/13/325 301/9/321 303/11/323
f 304/12/324 306/14/326 303/11/323
f 307/15/327 305/13/325 303/11/323
f 306/14/326 308/16/328 303/11/323
f 309/17/329 307/15/327 303/11/323
f 308/16/328 309/17/329 303/11/323
f 302/18/199 301/19/330 305/20/199 307/21/199 309/22/199 308/23/199 306/24/199 304/25/199
usemtl Meshpart1Mtl.026
f 314/1/331 316/2/332 317/3/333 315/4/334 313/5/335 311/6/336 312/7/337 310/8/338
f 322/1/339 318/8/340 319/7/341 320/6/342 321/5/343 323/4/344 325/3/345 324/2/346
f 312/7/337 319/7/341 318/8/340 310/8/338
f 316/2/332 324/2/346 325/3/345 317/3/333
f 314/1/331 322/1/339 324/2/346 316/2/332
f 310/8/338 318/8/340 322/1/339 314/1/331
f 311/6/336 320/6/342 319/7/341 312/7/337
f 317/3/333 325/3/345 323/4/344 315/4/334
f 315/4/334 323/4/344 321/5/343 313/5/335
f 313/5/335 321/5/343 320/6/342 311/6/336
usemtl Meshpart2Mtl.014
f 326/9/347 327/10/348 328/11/349
f 327/10/348 329/12/350 328/11/349
f 330/13/351 326/9/347 328/11/349
f 329/12/350 331/14/352 328/11/349
f 332/15/353 330/13/351 328/11/349
f 331/14/352 333/16/354 328/11/349
f 334/17/355 332/15/353 328/11/349
f 333/16/354 334/17/355 328/11/349
f 327/18/199 326/19/356 330/20/199 332/21/199 334/22/199 333/23/199 331/24/199 329/25/199
usemtl Meshpart1Mtl.028
f 339/1/357 341/2/358 342/3/359 340/4/360 338/5/361 336/6/362 337/7/363 335/8/364
f 347/1/365 343/8/366 344/7/367 345/6/368 346/5/369 348/4/370 350/3/371 349/2/372
f 337/7/363 344/7/367 343/8/366 335/8/364
f 341/2/358 349/2/372 350/3/371 342/3/359
f 339/1/357 347/1/365 349/2/372 341/2/358
f 335/8/364 343/8/366 347/1/365 339/1/357
f 336/6/362 345/6/368 344/7/367 337/7/363
f 342/3/359 350/3/371 348/4/370 340/4/360
f 340/4/360 348/4/370 346/5/369 338/5/361
f 338/5/361 346/5/369 345/6/368 336/6/362
usemtl Meshpart1Mtl.031
f 355/1/373 357/2/374 358/3/375 356/4/376 354/5/377 352/6/378 353/7/379 351/8/380
f 363/1/381 359/8/382 360/7/383 361/6/384 362/5/385 364/4/386 366/3/387 365/2/388
f 353/7/379 360/7/383 359/8/382 351/8/380
f 357/2/374 365/2/388 366/3/387 358/3/375
f 355/1/373 363/1/381 365/2/388 357/2/374
f 351/8/380 359/8/382 363/1/381 355/1/373
f 352/6/378 361/6/384 360/7/383 353/7/379
f 358/3/375 366/3/387 364/4/386 356/4/376
f 356/4/376 364/4/386 362/5/385 354/5/377
f 354/5/377 362/5/385 361/6/384 352/6/378
usemtl Meshpart2Mtl.016
f 367/9/389 368/10/390 369/11/391
f 368/10/390 370/12/392 369/11/391
f 371/13/393 367/9/389 369/11/391
f 370/12/392 372/14/394 369/11/391
f 373/15/395 371/13/393 369/11/391
f 372/14/394 374/16/396 369/11/391
f 375/17/397 373/15/395 369/11/391
f 374/16/396 375/17/397 369/11/391
f 368/18/398 367/19/399 371/20/398 373/21/398 375/22/398 374/23/398 372/24/398 370/25/398
usemtl Meshpart2Mtl.017
f 376/9/400 377/10/401 378/11/402
f 377/10/401 379/12/403 378/11/402
f 380/13/404 376/9/400 378/11/402
f 379/12/403 381/14/405 378/11/402
f 382/15/406 380/13/404 378/11/402
f 381/14/405 383/16/407 378/11/402
f 384/17/408 382/15/406 378/11/402
f 383/16/407 384/17/408 378/11/402
f 377/18/409 376/19/410 380/20/409 382/21/409 384/22/409 383/23/409 381/24/409 379/25/409
usemtl Meshpart1Mtl.034
f 389/1/411 391/2/412 392/3/413 390/4/414 388/5/415 386/6/416 387/7/417 385/8/418
f 397/1/419 393/8/420 394/7/421 395/6/422 396/5/423 398/4/424 400/3/425 399/2/426
f 387/7/417 394/7/421 393/8/420 385/8/418
f 391/2/412 399/2/426 400/3/425 392/3/413
f 389/1/411 397/1/419 399/2/426 391/2/412
f 385/8/418 393/8/420 397/1/419 389/1/411
f 386/6/416 395/6/422 394/7/421 387/7/417
f 392/3/413 400/3/425 398/4/424 390/4/414
f 390/4/414 398/4/424 396/5/423 388/5/415
f 388/5/415 396/5/423 395/6/422 386/6/416
usemtl Meshpart1Mtl.035
f 405/1/427 407/2/428 408/3/429 406/4/430 404/5/431 402/6/432 403/7/433 401/8/434
f 413/1/435 409/8/436 410/7/437 411/6/438 412/5/439 414/4/440 416/3/441 415/2/442
f 403/7/433 410/7/437 409/8/436 401/8/434
f 407/2/428 415/2/442 416/3/441 408/3/429
f 405/1/427 413/1/435 415/2/442 407/2/428
f 401/8/434 409/8/436 413/1/435 405/1/427
f 402/6/432 411/6/438 410/7/437 403/7/433
f 408/3/429 416/3/441 414/4/440 406/4/430
f 406/4/430 414/4/440 412/5/439 404/5/431
f 404/5/431 412/5/439 411/6/438 402/6/432
usemtl Meshpart2Mtl.018
f 417/9/443 418/10/444 419/11/445
f 418/10/444 420/12/446 419/11/445
f 421/13/447 417/9/443 419/11/445
f 420/12/446 422/14/448 419/11/445
f 423/15/449 421/13/447 419/11/445
f 422/14/448 424/16/450 419/11/445
f 425/17/451 423/15/449 419/11/445
f 424/16/450 425/17/451 419/11/445
f 418/18/452 417/19/453 421/20/452 423/21/452 425/22/452 424/23/452 422/24/452 420/25/452
usemtl Meshpart2Mtl.019
f 426/9/454 427/10/455 428/11/456
f 427/10/455 429/12/457 428/11/456
f 430/13/458 426/9/454 428/11/456
f 429/12/457 431/14/459 428/11/456
f 432/15/460 430/13/458 428/11/456
f 431/14/459 433/16/461 428/11/456
f 434/17/462 432/15/460 428/11/456
f 433/16/461 434/17/462 428/11/456
f 427/18/463 426/19/464 430/20/463 432/21/463 434/22/463 433/23/463 431/24/463 429/25/463
usemtl Meshpart1Mtl.038
f 439/1/465 441/2/466 442/3/467 440/4/468 438/5/469 436/6/470 437/7/471 435/8/472
f 447/1/473 443/8/474 444/7/475 445/6/476 446/5/477 448/4/478 450/3/479 449/2/480
f 437/7/471 444/7/475 443/8/474 435/8/472
f 441/2/466 449/2/480 450/3/479 442/3/467
f 439/1/465 447/1/473 449/2/480 441/2/466
f 435/8/472 443/8/474 447/1/473 439/1/465
f 436/6/470 445/6/476 444/7/475 437/7/471
f 442/3/467 450/3/479 448/4/478 440/4/468
f 440/4/468 448/4/478 446/5/477 438/5/469
f 438/5/469 446/5/477 445/6/476 436/6/470
usemtl Meshpart1Mtl.039
f 455/1/481 457/2/482 458/3/483 456/4/484 454/5/485 452/6/486 453/7/487 451/8/488
f 463/1/489 459/8/490 460/7/491 461/6/492 462/5/493 464/4/494 466/3/495 465/2/496
f 453/7/487 460/7/491 459/8/490 451/8/488
f 457/2/482 465/2/496 466/3/495 458/3/483
f 455/1/481 463/1/489 465/2/496 457/2/482
f 451/8/488 459/8/490 463/1/489 455/1/481
f 452/6/486 461/6/492 460/7/491 453/7/487
f 458/3/483 466/3/495 464/4/494 456/4/484
f 456/4/484 464/4/494 462/5/493 454/5/485
f 454/5/485 462/5/493 461/6/492 452/6/486
usemtl Meshpart2Mtl.020
f 467/9/497 468/10/498 469/11/499
f 468/10/498 470/12/500 469/11/499
f 471/13/501 467/9/497 469/11/499
f 470/12/500 472/14/502 469/11/499
f 473/15/503 471/13/501 469/11/499
f 472/14/502 474/16/504 469/11/499
f 475/17/505 473/15/503 469/11/499
f 474/16/504 475/17/505 469/11/499
f 468/18/506 467/19/507 471/20/506 473/21/506 475/22/506 474/23/506 472/24/506 470/25/506
