# Blender 5.2.0 LTS
# www.blender.org
mtllib eyething boneclaw chamber.mtl
o eye_white
v -0.095843 0.088128 0.087436 0.9063 0.9063 0.9063
v -0.095843 -0.088976 0.086881 0.9063 0.9063 0.9063
v -0.095847 -0.000017 0.123224 0.9063 0.9063 0.9063
v -0.095834 -0.124619 0.000089 0.9063 0.9063 0.9063
v -0.095834 0.124677 0.000066 0.9063 0.9063 0.9063
v -0.095826 -0.088691 -0.086222 0.9063 0.9063 0.9063
v -0.095826 0.087800 -0.087290 0.9063 0.9063 0.9063
v -0.095822 0.000075 -0.123068 0.9063 0.9063 0.9063
v -0.095166 0.088128 0.087437 0.9063 0.9063 0.9063
v -0.095169 -0.000017 0.123224 0.9063 0.9063 0.9063
v -0.095166 -0.088976 0.086881 0.9063 0.9063 0.9063
v -0.095157 -0.124619 0.000089 0.9063 0.9063 0.9063
v -0.095157 0.124677 0.000066 0.9063 0.9063 0.9063
v -0.095149 -0.088691 -0.086222 0.9063 0.9063 0.9063
v -0.095149 0.087800 -0.087290 0.9063 0.9063 0.9063
v -0.095145 0.000075 -0.123068 0.9063 0.9063 0.9063
v -0.095678 0.121170 0.000278 0.9063 0.0000 0.0304
v -0.095674 0.085105 -0.039802 0.9063 0.0000 0.0304
v -0.109562 -0.000630 -0.000202 0.9063 0.0000 0.0304
v -0.095673 -0.000400 -0.055558 0.9063 0.0000 0.0304
v -0.095682 0.085337 0.039091 0.9063 0.0000 0.0304
v -0.095674 -0.085227 -0.038958 0.9063 0.0000 0.0304
v -0.095684 0.000449 0.055710 0.9063 0.0000 0.0304
v -0.095678 -0.121078 -0.000107 0.9063 0.0000 0.0304
v -0.095682 -0.086366 0.039398 0.9063 0.0000 0.0304
v 0.095308 0.049284 0.085362 0.0000 0.0000 0.0000
v 0.095308 -0.000001 0.125308 0.0000 0.0000 0.0000
v 0.095308 0.028364 0.088116 0.0000 0.0000 0.0000
v 0.095308 0.011625 0.075272 0.0000 0.0000 0.0000
v 0.095308 0.088606 0.088606 0.0000 0.0000 0.0000
v 0.095308 0.062128 0.068623 0.0000 0.0000 0.0000
v 0.095308 -0.011625 0.075272 0.0000 0.0000 0.0000
v 0.095308 0.008871 0.054353 0.0000 0.0000 0.0000
v 0.095308 -0.028365 0.088116 0.0000 0.0000 0.0000
v 0.095308 -0.008871 0.054353 0.0000 0.0000 0.0000
v 0.095308 -0.049285 0.085362 0.0000 0.0000 0.0000
v 0.095308 -0.088606 0.088606 0.0000 0.0000 0.0000
v 0.095308 0.021716 0.037613 0.0000 0.0000 0.0000
v 0.095308 -0.062128 0.068623 0.0000 0.0000 0.0000
v 0.095308 -0.021717 0.037613 0.0000 0.0000 0.0000
v 0.095308 -0.090494 0.019493 0.0000 0.0000 0.0000
v 0.095308 -0.125308 0.000000 0.0000 0.0000 0.0000
v 0.095308 -0.071001 0.027568 0.0000 0.0000 0.0000
v 0.095308 -0.098568 0.000000 0.0000 0.0000 0.0000
v 0.095308 -0.059374 0.047704 0.0000 0.0000 0.0000
v 0.095308 -0.090494 -0.019493 0.0000 0.0000 0.0000
v 0.095308 -0.042636 0.034859 0.0000 0.0000 0.0000
v 0.095308 -0.051507 0.019493 0.0000 0.0000 0.0000
v 0.095308 -0.088606 -0.088606 0.0000 0.0000 0.0000
v 0.095308 -0.043433 0.000000 0.0000 0.0000 0.0000
v 0.095308 -0.062128 -0.068623 0.0000 0.0000 0.0000
v 0.095308 -0.071001 -0.027568 0.0000 0.0000 0.0000
v 0.095308 -0.049285 -0.085362 0.0000 0.0000 0.0000
v 0.095308 -0.059374 -0.047704 0.0000 0.0000 0.0000
v 0.095308 -0.042636 -0.034859 0.0000 0.0000 0.0000
v 0.095308 -0.051507 -0.019493 0.0000 0.0000 0.0000
v 0.095308 -0.000001 -0.125308 0.0000 0.0000 0.0000
v 0.095308 -0.021717 -0.037613 0.0000 0.0000 0.0000
v 0.095308 -0.028365 -0.088116 0.0000 0.0000 0.0000
v 0.095308 0.021716 -0.037613 0.0000 0.0000 0.0000
v 0.095308 -0.011625 -0.075272 0.0000 0.0000 0.0000
v 0.095308 -0.008871 -0.054353 0.0000 0.0000 0.0000
v 0.095308 0.008871 -0.054353 0.0000 0.0000 0.0000
v 0.095308 0.011625 -0.075272 0.0000 0.0000 0.0000
v 0.095308 0.028364 -0.088116 0.0000 0.0000 0.0000
v 0.095308 0.049284 -0.085362 0.0000 0.0000 0.0000
v 0.095308 0.088606 -0.088606 0.0000 0.0000 0.0000
v 0.095308 0.062128 -0.068623 0.0000 0.0000 0.0000
v 0.095308 0.090494 -0.019493 0.0000 0.0000 0.0000
v 0.095308 0.059374 -0.047704 0.0000 0.0000 0.0000
v 0.095308 0.125308 -0.000000 0.0000 0.0000 0.0000
v 0.095308 0.070999 -0.027568 0.0000 0.0000 0.0000
v 0.095308 0.098568 -0.000000 0.0000 0.0000 0.0000
v 0.095308 0.042635 -0.034859 0.0000 0.0000 0.0000
v 0.095308 0.051507 -0.019493 0.0000 0.0000 0.0000
v 0.095308 0.090494 0.019493 0.0000 0.0000 0.0000
v 0.095308 0.059374 0.047704 0.0000 0.0000 0.0000
v 0.095308 0.070999 0.027568 0.0000 0.0000 0.0000
v 0.095308 0.042635 0.034859 0.0000 0.0000 0.0000
v 0.095308 0.051507 0.019493 0.0000 0.0000 0.0000
v 0.095308 0.043433 -0.000000 0.0000 0.0000 0.0000
v -0.095308 0.042635 -0.034859 0.0000 0.0000 0.0000
v -0.095308 0.043433 -0.000000 0.0000 0.0000 0.0000
v -0.095308 0.051507 -0.019493 0.0000 0.0000 0.0000
v -0.095308 0.070999 -0.027568 0.0000 0.0000 0.0000
v -0.095308 0.059374 -0.047704 0.0000 0.0000 0.0000
v -0.095308 0.090494 -0.019493 0.0000 0.0000 0.0000
v -0.095308 0.062128 -0.068623 0.0000 0.0000 0.0000
v -0.095308 0.088606 -0.088606 0.0000 0.0000 0.0000
v -0.095308 0.049284 -0.085362 0.0000 0.0000 0.0000
v -0.095308 0.125308 -0.000000 0.0000 0.0000 0.0000
v -0.095308 0.098568 -0.000000 0.0000 0.0000 0.0000
v -0.095308 -0.000001 -0.125308 0.0000 0.0000 0.0000
v -0.095308 0.090494 0.019493 0.0000 0.0000 0.0000
v -0.095308 0.028364 -0.088116 0.0000 0.0000 0.0000
v -0.095308 0.088606 0.088606 0.0000 0.0000 0.0000
v -0.095308 0.011625 -0.075272 0.0000 0.0000 0.0000
v -0.095308 -0.011625 -0.075272 0.0000 0.0000 0.0000
v -0.095308 0.008871 -0.054353 0.0000 0.0000 0.0000
v -0.095308 -0.028365 -0.088116 0.0000 0.0000 0.0000
v -0.095308 -0.008871 -0.054353 0.0000 0.0000 0.0000
v -0.095308 -0.049285 -0.085362 0.0000 0.0000 0.0000
v -0.095308 -0.088606 -0.088606 0.0000 0.0000 0.0000
v -0.095308 -0.062128 -0.068623 0.0000 0.0000 0.0000
v -0.095308 0.021716 -0.037613 0.0000 0.0000 0.0000
v -0.095308 -0.090494 -0.019493 0.0000 0.0000 0.0000
v -0.095308 -0.125308 0.000000 0.0000 0.0000 0.0000
v -0.095308 -0.071001 -0.027568 0.0000 0.0000 0.0000
v -0.095308 -0.098568 0.000000 0.0000 0.0000 0.0000
v -0.095308 -0.059374 -0.047704 0.0000 0.0000 0.0000
v -0.095308 -0.090494 0.019493 0.0000 0.0000 0.0000
v -0.095308 -0.042636 -0.034859 0.0000 0.0000 0.0000
v -0.095308 -0.051507 -0.019493 0.0000 0.0000 0.0000
v -0.095308 -0.088606 0.088606 0.0000 0.0000 0.0000
v -0.095308 -0.021717 -0.037613 0.0000 0.0000 0.0000
v -0.095308 -0.043433 0.000000 0.0000 0.0000 0.0000
v -0.095308 -0.062128 0.068623 0.0000 0.0000 0.0000
v -0.095308 -0.071001 0.027568 0.0000 0.0000 0.0000
v -0.095308 -0.049285 0.085362 0.0000 0.0000 0.0000
v -0.095308 -0.059374 0.047704 0.0000 0.0000 0.0000
v -0.095308 -0.042636 0.034859 0.0000 0.0000 0.0000
v -0.095308 -0.051507 0.019493 0.0000 0.0000 0.0000
v -0.095308 -0.000001 0.125308 0.0000 0.0000 0.0000
v -0.095308 -0.021717 0.037613 0.0000 0.0000 0.0000
v -0.095308 -0.028365 0.088116 0.0000 0.0000 0.0000
v -0.095308 -0.011625 0.075272 0.0000 0.0000 0.0000
v -0.095308 0.011625 0.075272 0.0000 0.0000 0.0000
v -0.095308 0.008871 0.054353 0.0000 0.0000 0.0000
v -0.095308 0.028364 0.088116 0.0000 0.0000 0.0000
v -0.095308 -0.008871 0.054353 0.0000 0.0000 0.0000
v -0.095308 0.049284 0.085362 0.0000 0.0000 0.0000
v -0.095308 0.062128 0.068623 0.0000 0.0000 0.0000
v -0.095308 0.059374 0.047704 0.0000 0.0000 0.0000
v -0.095308 0.070999 0.027568 0.0000 0.0000 0.0000
v -0.095308 0.042635 0.034859 0.0000 0.0000 0.0000
v -0.095308 0.051507 0.019493 0.0000 0.0000 0.0000
v -0.095308 0.021716 0.037613 0.0000 0.0000 0.0000
v 0.095308 -0.011625 0.075272 0.0000 0.0000 0.0000
v -0.095308 -0.008871 0.054353 0.0000 0.0000 0.0000
v 0.095308 -0.008871 0.054353 0.0000 0.0000 0.0000
v -0.095308 -0.011625 0.075272 0.0000 0.0000 0.0000
v -0.095308 -0.021717 0.037613 0.0000 0.0000 0.0000
v 0.095308 -0.028365 0.088116 0.0000 0.0000 0.0000
v 0.095308 -0.021717 0.037613 0.0000 0.0000 0.0000
v -0.095308 -0.028365 0.088116 0.0000 0.0000 0.0000
v 0.095308 -0.042636 0.034859 0.0000 0.0000 0.0000
v 0.095308 -0.049285 0.085362 0.0000 0.0000 0.0000
v -0.095308 -0.042636 0.034859 0.0000 0.0000 0.0000
v -0.095308 -0.049285 0.085362 0.0000 0.0000 0.0000
v 0.095308 -0.059374 0.047704 0.0000 0.0000 0.0000
v -0.095308 -0.062128 0.068623 0.0000 0.0000 0.0000
v -0.095308 -0.059374 0.047704 0.0000 0.0000 0.0000
v 0.095308 -0.062128 0.068623 0.0000 0.0000 0.0000
v 0.095308 0.059374 -0.047704 0.0000 0.0000 0.0000
v -0.095308 0.062128 -0.068623 0.0000 0.0000 0.0000
v 0.095308 0.062128 -0.068623 0.0000 0.0000 0.0000
v -0.095308 0.059374 -0.047704 0.0000 0.0000 0.0000
v -0.095308 0.049284 -0.085362 0.0000 0.0000 0.0000
v 0.095308 0.042635 -0.034859 0.0000 0.0000 0.0000
v 0.095308 0.049284 -0.085362 0.0000 0.0000 0.0000
v -0.095308 0.042635 -0.034859 0.0000 0.0000 0.0000
v 0.095308 0.028364 -0.088116 0.0000 0.0000 0.0000
v 0.095308 0.021716 -0.037613 0.0000 0.0000 0.0000
v -0.095308 0.028364 -0.088116 0.0000 0.0000 0.0000
v -0.095308 0.021716 -0.037613 0.0000 0.0000 0.0000
v 0.095308 0.011625 -0.075272 0.0000 0.0000 0.0000
v -0.095308 0.008871 -0.054353 0.0000 0.0000 0.0000
v -0.095308 0.011625 -0.075272 0.0000 0.0000 0.0000
v 0.095308 0.008871 -0.054353 0.0000 0.0000 0.0000
v -0.095308 -0.088606 0.088606 0.0000 0.0000 0.0000
v 0.095308 -0.088606 0.088606 0.0000 0.0000 0.0000
v 0.095308 -0.000001 0.125308 0.0000 0.0000 0.0000
v -0.095308 -0.125308 0.000000 0.0000 0.0000 0.0000
v -0.095308 -0.000001 0.125308 0.0000 0.0000 0.0000
v 0.095308 -0.125308 0.000000 0.0000 0.0000 0.0000
v 0.095308 0.088606 0.088606 0.0000 0.0000 0.0000
v -0.095308 -0.088606 -0.088606 0.0000 0.0000 0.0000
v -0.095308 0.088606 0.088606 0.0000 0.0000 0.0000
v 0.095308 -0.088606 -0.088606 0.0000 0.0000 0.0000
v 0.095308 0.125308 -0.000000 0.0000 0.0000 0.0000
v -0.095308 -0.000001 -0.125308 0.0000 0.0000 0.0000
v -0.095308 0.125308 -0.000000 0.0000 0.0000 0.0000
v 0.095308 -0.000001 -0.125308 0.0000 0.0000 0.0000
v 0.095308 0.088606 -0.088606 0.0000 0.0000 0.0000
v -0.095308 0.088606 -0.088606 0.0000 0.0000 0.0000
v -0.095308 0.070999 0.027568 0.0000 0.0000 0.0000
v 0.095308 0.070999 0.027568 0.0000 0.0000 0.0000
v 0.095308 0.051507 0.019493 0.0000 0.0000 0.0000
v -0.095308 0.090494 0.019493 0.0000 0.0000 0.0000
v -0.095308 0.051507 0.019493 0.0000 0.0000 0.0000
v 0.095308 0.090494 0.019493 0.0000 0.0000 0.0000
v -0.095308 0.043433 -0.000000 0.0000 0.0000 0.0000
v -0.095308 0.098568 -0.000000 0.0000 0.0000 0.0000
v 0.095308 0.043433 -0.000000 0.0000 0.0000 0.0000
v 0.095308 0.098568 -0.000000 0.0000 0.0000 0.0000
v -0.095308 0.051507 -0.019493 0.0000 0.0000 0.0000
v -0.095308 0.090494 -0.019493 0.0000 0.0000 0.0000
v 0.095308 0.051507 -0.019493 0.0000 0.0000 0.0000
v 0.095308 0.090494 -0.019493 0.0000 0.0000 0.0000
v -0.095308 0.070999 -0.027568 0.0000 0.0000 0.0000
v 0.095308 0.070999 -0.027568 0.0000 0.0000 0.0000
v -0.095308 -0.071001 0.027568 0.0000 0.0000 0.0000
v 0.095308 -0.071001 0.027568 0.0000 0.0000 0.0000
v 0.095308 -0.090494 0.019493 0.0000 0.0000 0.0000
v -0.095308 -0.051507 0.019493 0.0000 0.0000 0.0000
v -0.095308 -0.090494 0.019493 0.0000 0.0000 0.0000
v 0.095308 -0.051507 0.019493 0.0000 0.0000 0.0000
v -0.095308 -0.098568 0.000000 0.0000 0.0000 0.0000
v -0.095308 -0.043433 0.000000 0.0000 0.0000 0.0000
v 0.095308 -0.098568 0.000000 0.0000 0.0000 0.0000
v 0.095308 -0.043433 0.000000 0.0000 0.0000 0.0000
v -0.095308 -0.090494 -0.019493 0.0000 0.0000 0.0000
v -0.095308 -0.051507 -0.019493 0.0000 0.0000 0.0000
v 0.095308 -0.090494 -0.019493 0.0000 0.0000 0.0000
v 0.095308 -0.051507 -0.019493 0.0000 0.0000 0.0000
v -0.095308 -0.071001 -0.027568 0.0000 0.0000 0.0000
v 0.095308 -0.071001 -0.027568 0.0000 0.0000 0.0000
v 0.095308 -0.028365 -0.088116 0.0000 0.0000 0.0000
v -0.095308 -0.028365 -0.088116 0.0000 0.0000 0.0000
v 0.095308 -0.049285 -0.085362 0.0000 0.0000 0.0000
v -0.095308 -0.049285 -0.085362 0.0000 0.0000 0.0000
v -0.095308 -0.011625 -0.075272 0.0000 0.0000 0.0000
v 0.095308 -0.062128 -0.068623 0.0000 0.0000 0.0000
v 0.095308 -0.011625 -0.075272 0.0000 0.0000 0.0000
v -0.095308 -0.062128 -0.068623 0.0000 0.0000 0.0000
v 0.095308 -0.008871 -0.054353 0.0000 0.0000 0.0000
v 0.095308 -0.059374 -0.047704 0.0000 0.0000 0.0000
v -0.095308 -0.008871 -0.054353 0.0000 0.0000 0.0000
v -0.095308 -0.059374 -0.047704 0.0000 0.0000 0.0000
v 0.095308 -0.021717 -0.037613 0.0000 0.0000 0.0000
v -0.095308 -0.042636 -0.034859 0.0000 0.0000 0.0000
v -0.095308 -0.021717 -0.037613 0.0000 0.0000 0.0000
v 0.095308 -0.042636 -0.034859 0.0000 0.0000 0.0000
v 0.095308 0.042635 0.034859 0.0000 0.0000 0.0000
v -0.095308 0.042635 0.034859 0.0000 0.0000 0.0000
v 0.095308 0.021716 0.037613 0.0000 0.0000 0.0000
v -0.095308 0.021716 0.037613 0.0000 0.0000 0.0000
v -0.095308 0.059374 0.047704 0.0000 0.0000 0.0000
v 0.095308 0.008871 0.054353 0.0000 0.0000 0.0000
v 0.095308 0.059374 0.047704 0.0000 0.0000 0.0000
v -0.095308 0.008871 0.054353 0.0000 0.0000 0.0000
v 0.095308 0.062128 0.068623 0.0000 0.0000 0.0000
v 0.095308 0.011625 0.075272 0.0000 0.0000 0.0000
v -0.095308 0.062128 0.068623 0.0000 0.0000 0.0000
v -0.095308 0.011625 0.075272 0.0000 0.0000 0.0000
v 0.095308 0.049284 0.085362 0.0000 0.0000 0.0000
v -0.095308 0.028364 0.088116 0.0000 0.0000 0.0000
v -0.095308 0.049284 0.085362 0.0000 0.0000 0.0000
v 0.095308 0.028364 0.088116 0.0000 0.0000 0.0000
vn -0.6294 0.7771 -0.0013
vn -0.6303 0.5456 -0.5523
vn -0.6310 -0.0021 -0.7758
vn -0.6304 -0.5486 -0.5492
vn -0.6304 -0.7763 -0.0019
vn -0.6297 -0.5489 0.5498
vn -0.6313 -0.0008 0.7755
vn -0.6300 0.5463 0.5520
vn 0.6294 0.7771 -0.0012
vn 0.6299 0.5463 0.5521
vn 0.6312 -0.0008 0.7756
vn 0.6296 -0.5489 0.5499
vn 0.6304 -0.7763 -0.0018
vn 0.6305 -0.5486 -0.5491
vn 0.6310 -0.0027 -0.7758
vn 0.6304 0.5456 -0.5522
vn -0.9931 0.1108 0.0392
vn -0.9861 0.1126 -0.1220
vn -1.0000 0.0002 -0.0000
vn -0.9686 -0.0221 -0.2477
vn -0.9864 0.1112 0.1209
vn -0.9866 -0.1109 -0.1200
vn -0.9686 0.0222 0.2476
vn -0.9931 -0.1105 -0.0387
vn -0.9861 -0.1124 0.1220
vn 1.0000 -0.0000 0.0001
vn 1.0000 0.0003 -0.0005
vn 1.0000 -0.0000 -0.0000
vn -1.0000 -0.0000 -0.0000
vn -0.0000 -0.8660 -0.5000
vn -0.0000 -0.9659 0.2588
vn -0.0000 -0.5000 0.8660
vn -0.0000 -0.2588 -0.9659
vn -0.0000 0.2588 0.9659
vn -0.0000 0.5000 -0.8660
vn -0.0000 0.8660 0.5000
vn -0.0000 0.9659 -0.2588
vn -0.0000 -0.7071 0.7071
vn -0.0000 -0.0000 1.0000
vn -0.0000 -1.0000 -0.0000
vn -0.0000 0.7071 0.7071
vn -0.0000 -0.7071 -0.7071
vn -0.0000 1.0000 -0.0000
vn -0.0000 -0.0000 -1.0000
vn -0.0000 0.7071 -0.7071
vn -0.0000 -0.2588 0.9659
vn -0.0000 0.5000 0.8660
vn -0.0000 -0.8660 0.5000
vn -0.0000 0.9659 0.2588
vn -0.0000 -0.9659 -0.2588
vn -0.0000 0.8660 -0.5000
vn -0.0000 -0.5000 -0.8660
vn -0.0000 0.2588 -0.9659
vt 0.182890 0.474615
vt 0.240617 0.469953
vt 0.321498 0.468750
vt 0.379371 0.471731
vt 0.379371 0.477042
vt 0.322803 0.481684
vt 0.240763 0.482908
vt 0.183031 0.479993
vt 0.000000 0.501268
vt 0.049417 0.499461
vt 0.082698 0.502348
vt 0.117095 0.499399
vt 0.000009 0.503661
vt 0.164115 0.501054
vt 0.047059 0.505317
vt 0.164115 0.503448
vt 0.115970 0.505237
vt 0.597556 0.499771
vt 0.568294 0.502270
vt 0.528543 0.501625
vt 0.500306 0.498334
vt 0.500580 0.494191
vt 0.529559 0.491763
vt 0.569345 0.492409
vt 0.597556 0.495697
vt 0.000000 0.000000
s 1
usemtl Meshpart1Mtl.007
f 5/1/1 7/2/2 8/3/3 6/4/4 4/5/5 2/6/6 3/7/7 1/8/8
f 13/1/9 9/8/10 10/7/11 11/6/12 12/5/13 14/4/14 16/3/15 15/2/16
f 3/7/7 10/7/11 9/8/10 1/8/8
f 7/2/2 15/2/16 16/3/15 8/3/3
f 5/1/1 13/1/9 15/2/16 7/2/2
f 1/8/8 9/8/10 13/1/9 5/1/1
f 2/6/6 11/6/12 10/7/11 3/7/7
f 8/3/3 16/3/15 14/4/14 6/4/4
f 6/4/4 14/4/14 12/5/13 4/5/5
f 4/5/5 12/5/13 11/6/12 2/6/6
usemtl Meshpart2Mtl.005
f 17/9/17 18/10/18 19/11/19
f 18/10/18 20/12/20 19/11/19
f 21/13/21 17/9/17 19/11/19
f 20/12/20 22/14/22 19/11/19
f 23/15/23 21/13/21 19/11/19
f 22/14/22 24/16/24 19/11/19
f 25/17/25 23/15/23 19/11/19
f 24/16/24 25/17/25 19/11/19
f 18/18/26 17/19/27 21/20/26 23/21/26 25/22/26 24/23/26 22/24/26 20/25/26
usemtl Material.001
f 26/26/28 27/26/28 28/26/28
f 27/26/28 29/26/28 28/26/28
f 27/26/28 26/26/28 30/26/28
f 31/26/28 30/26/28 26/26/28
f 32/26/28 29/26/28 27/26/28
f 29/26/28 32/26/28 33/26/28
f 27/26/28 34/26/28 32/26/28
f 33/26/28 32/26/28 35/26/28
f 27/26/28 36/26/28 34/26/28
f 27/26/28 37/26/28 36/26/28
f 38/26/28 33/26/28 35/26/28
f 37/26/28 39/26/28 36/26/28
f 40/26/28 38/26/28 35/26/28
f 41/26/28 39/26/28 37/26/28
f 42/26/28 41/26/28 37/26/28
f 43/26/28 39/26/28 41/26/28
f 41/26/28 42/26/28 44/26/28
f 39/26/28 43/26/28 45/26/28
f 44/26/28 42/26/28 46/26/28
f 43/26/28 47/26/28 45/26/28
f 47/26/28 43/26/28 48/26/28
f 48/26/28 40/26/28 47/26/28
f 49/26/28 46/26/28 42/26/28
f 40/26/28 48/26/28 50/26/28
f 46/26/28 49/26/28 51/26/28
f 51/26/28 52/26/28 46/26/28
f 49/26/28 53/26/28 51/26/28
f 52/26/28 51/26/28 54/26/28
f 55/26/28 52/26/28 54/26/28
f 52/26/28 55/26/28 56/26/28
f 57/26/28 53/26/28 49/26/28
f 58/26/28 56/26/28 55/26/28
f 56/26/28 58/26/28 50/26/28
f 58/26/28 40/26/28 50/26/28
f 53/26/28 57/26/28 59/26/28
f 40/26/28 58/26/28 60/26/28
f 57/26/28 61/26/28 59/26/28
f 40/26/28 60/26/28 38/26/28
f 62/26/28 60/26/28 58/26/28
f 61/26/28 63/26/28 62/26/28
f 60/26/28 62/26/28 63/26/28
f 63/26/28 61/26/28 64/26/28
f 57/26/28 64/26/28 61/26/28
f 64/26/28 57/26/28 65/26/28
f 57/26/28 66/26/28 65/26/28
f 66/26/28 57/26/28 67/26/28
f 68/26/28 66/26/28 67/26/28
f 69/26/28 68/26/28 67/26/28
f 68/26/28 69/26/28 70/26/28
f 71/26/28 69/26/28 67/26/28
f 70/26/28 69/26/28 72/26/28
f 69/26/28 71/26/28 73/26/28
f 72/26/28 74/26/28 70/26/28
f 74/26/28 72/26/28 75/26/28
f 76/26/28 73/26/28 71/26/28
f 30/26/28 76/26/28 71/26/28
f 76/26/28 30/26/28 31/26/28
f 77/26/28 76/26/28 31/26/28
f 76/26/28 77/26/28 78/26/28
f 79/26/28 78/26/28 77/26/28
f 78/26/28 79/26/28 80/26/28
f 79/26/28 81/26/28 80/26/28
f 81/26/28 74/26/28 75/26/28
f 81/26/28 79/26/28 38/26/28
f 60/26/28 74/26/28 81/26/28
f 38/26/28 60/26/28 81/26/28
f 82/26/29 83/26/29 84/26/29
f 85/26/29 82/26/29 84/26/29
f 82/26/29 85/26/29 86/26/29
f 87/26/29 86/26/29 85/26/29
f 87/26/29 88/26/29 86/26/29
f 87/26/29 89/26/29 88/26/29
f 89/26/29 90/26/29 88/26/29
f 89/26/29 87/26/29 91/26/29
f 92/26/29 91/26/29 87/26/29
f 93/26/29 90/26/29 89/26/29
f 94/26/29 91/26/29 92/26/29
f 90/26/29 93/26/29 95/26/29
f 91/26/29 94/26/29 96/26/29
f 93/26/29 97/26/29 95/26/29
f 93/26/29 98/26/29 97/26/29
f 98/26/29 99/26/29 97/26/29
f 98/26/29 93/26/29 100/26/29
f 99/26/29 98/26/29 101/26/29
f 93/26/29 102/26/29 100/26/29
f 102/26/29 93/26/29 103/26/29
f 103/26/29 104/26/29 102/26/29
f 101/26/29 105/26/29 99/26/29
f 106/26/29 104/26/29 103/26/29
f 107/26/29 106/26/29 103/26/29
f 108/26/29 104/26/29 106/26/29
f 106/26/29 107/26/29 109/26/29
f 104/26/29 108/26/29 110/26/29
f 107/26/29 111/26/29 109/26/29
f 108/26/29 112/26/29 110/26/29
f 112/26/29 108/26/29 113/26/29
f 114/26/29 111/26/29 107/26/29
f 115/26/29 112/26/29 113/26/29
f 105/26/29 101/26/29 115/26/29
f 116/26/29 115/26/29 113/26/29
f 111/26/29 114/26/29 117/26/29
f 117/26/29 118/26/29 111/26/29
f 119/26/29 117/26/29 114/26/29
f 118/26/29 117/26/29 120/26/29
f 121/26/29 118/26/29 120/26/29
f 118/26/29 121/26/29 122/26/29
f 123/26/29 119/26/29 114/26/29
f 124/26/29 122/26/29 121/26/29
f 122/26/29 124/26/29 116/26/29
f 124/26/29 115/26/29 116/26/29
f 115/26/29 124/26/29 105/26/29
f 119/26/29 123/26/29 125/26/29
f 123/26/29 126/26/29 125/26/29
f 123/26/29 127/26/29 126/26/29
f 128/26/29 126/26/29 127/26/29
f 127/26/29 123/26/29 129/26/29
f 126/26/29 128/26/29 130/26/29
f 123/26/29 131/26/29 129/26/29
f 131/26/29 123/26/29 96/26/29
f 132/26/29 131/26/29 96/26/29
f 94/26/29 132/26/29 96/26/29
f 132/26/29 94/26/29 133/26/29
f 133/26/29 94/26/29 134/26/29
f 134/26/29 135/26/29 133/26/29
f 135/26/29 134/26/29 136/26/29
f 83/26/29 135/26/29 136/26/29
f 83/26/29 137/26/29 135/26/29
f 137/26/29 130/26/29 128/26/29
f 130/26/29 137/26/29 124/26/29
f 137/26/29 105/26/29 124/26/29
f 105/26/29 137/26/29 83/26/29
f 83/26/29 82/26/29 105/26/29
f 138/26/30 139/26/31 140/26/31
f 139/26/31 138/26/30 141/26/30
f 142/26/32 140/26/31 139/26/31
f 143/26/33 141/26/30 138/26/30
f 140/26/31 142/26/32 144/26/32
f 141/26/30 143/26/33 145/26/33
f 144/26/32 142/26/32 146/26/34
f 147/26/35 145/26/33 143/26/33
f 148/26/34 146/26/34 142/26/32
f 145/26/33 147/26/35 149/26/35
f 146/26/34 148/26/34 150/26/36
f 147/26/35 151/26/37 149/26/35
f 152/26/36 150/26/36 148/26/34
f 151/26/37 147/26/35 153/26/37
f 152/26/36 153/26/37 150/26/36
f 153/26/37 152/26/36 151/26/37
f 154/26/30 155/26/31 156/26/31
f 155/26/31 154/26/30 157/26/30
f 158/26/32 156/26/31 155/26/31
f 159/26/33 157/26/30 154/26/30
f 156/26/31 158/26/32 160/26/32
f 157/26/30 159/26/33 161/26/33
f 160/26/32 158/26/32 162/26/34
f 163/26/35 161/26/33 159/26/33
f 164/26/34 162/26/34 158/26/32
f 161/26/33 163/26/35 165/26/35
f 162/26/34 164/26/34 166/26/36
f 163/26/35 167/26/37 165/26/35
f 168/26/36 166/26/36 164/26/34
f 167/26/37 163/26/35 169/26/37
f 168/26/36 169/26/37 166/26/36
f 169/26/37 168/26/36 167/26/37
f 170/26/38 171/26/38 172/26/39
f 173/26/40 171/26/38 170/26/38
f 170/26/38 172/26/39 174/26/39
f 173/26/40 175/26/40 171/26/38
f 174/26/39 172/26/39 176/26/41
f 177/26/42 175/26/40 173/26/40
f 174/26/39 176/26/41 178/26/41
f 177/26/42 179/26/42 175/26/40
f 180/26/43 178/26/41 176/26/41
f 181/26/44 179/26/42 177/26/42
f 180/26/43 182/26/43 178/26/41
f 181/26/44 183/26/44 179/26/42
f 184/26/45 182/26/43 180/26/43
f 185/26/45 183/26/44 181/26/44
f 184/26/45 185/26/45 182/26/43
f 185/26/45 184/26/45 183/26/44
f 186/26/44 187/26/44 188/26/45
f 189/26/42 187/26/44 186/26/44
f 186/26/44 188/26/45 190/26/45
f 189/26/42 191/26/42 187/26/44
f 188/26/45 192/26/43 190/26/45
f 193/26/40 191/26/42 189/26/42
f 192/26/43 188/26/45 194/26/43
f 193/26/40 195/26/40 191/26/42
f 194/26/43 196/26/41 192/26/43
f 197/26/38 195/26/40 193/26/40
f 196/26/41 194/26/43 198/26/41
f 197/26/38 199/26/38 195/26/40
f 196/26/41 198/26/41 200/26/39
f 199/26/38 197/26/38 201/26/39
f 201/26/39 200/26/39 198/26/41
f 200/26/39 201/26/39 197/26/38
f 202/26/44 203/26/44 204/26/45
f 205/26/42 203/26/44 202/26/44
f 202/26/44 204/26/45 206/26/45
f 205/26/42 207/26/42 203/26/44
f 204/26/45 208/26/43 206/26/45
f 209/26/40 207/26/42 205/26/42
f 208/26/43 204/26/45 210/26/43
f 209/26/40 211/26/40 207/26/42
f 210/26/43 212/26/41 208/26/43
f 213/26/38 211/26/40 209/26/40
f 212/26/41 210/26/43 214/26/41
f 213/26/38 215/26/38 211/26/40
f 212/26/41 214/26/41 216/26/39
f 215/26/38 213/26/38 217/26/39
f 217/26/39 216/26/39 214/26/41
f 216/26/39 217/26/39 213/26/38
f 218/26/46 219/26/46 220/26/47
f 221/26/47 220/26/47 219/26/46
f 219/26/46 218/26/46 222/26/48
f 221/26/47 223/26/49 220/26/47
f 224/26/48 222/26/48 218/26/46
f 223/26/49 221/26/47 225/26/49
f 226/26/50 222/26/48 224/26/48
f 225/26/49 227/26/51 223/26/49
f 222/26/48 226/26/50 228/26/50
f 227/26/51 225/26/49 229/26/51
f 230/26/52 228/26/50 226/26/50
f 231/26/53 227/26/51 229/26/51
f 228/26/50 230/26/52 232/26/52
f 227/26/51 231/26/53 233/26/53
f 233/26/53 232/26/52 230/26/52
f 232/26/52 233/26/53 231/26/53
f 234/26/46 235/26/46 236/26/47
f 237/26/47 236/26/47 235/26/46
f 235/26/46 234/26/46 238/26/48
f 237/26/47 239/26/49 236/26/47
f 240/26/48 238/26/48 234/26/46
f 239/26/49 237/26/47 241/26/49
f 242/26/50 238/26/48 240/26/48
f 241/26/49 243/26/51 239/26/49
f 238/26/48 242/26/50 244/26/50
f 243/26/51 241/26/49 245/26/51
f 246/26/52 244/26/50 242/26/50
f 247/26/53 243/26/51 245/26/51
f 244/26/50 246/26/52 248/26/52
f 243/26/51 247/26/53 249/26/53
f 249/26/53 248/26/52 246/26/52
f 248/26/52 249/26/53 247/26/53
